<?xml version="1.0" encoding="UTF-8"?>
<svg xmlns="http://www.w3.org/2000/svg" width="760" height="500" viewBox="0 0 760 500">
<rect width="100%" height="100%" fill="#fcfcfc"/>
<rect x="72" y="72" width="616" height="356" fill="white" stroke="black" stroke-width="1.2"/>
<text x="380.0" y="41.0" text-anchor="middle" font-family="Helvetica" font-size="16" font-weight="bold">sim002: compactness satura en 3/7 — horizonte inalcanzable</text>
<text x="380.0" y="476.0" text-anchor="middle" font-family="Helvetica" font-size="13">x = r / r_s</text>
<text x="24.0" y="250.0" text-anchor="middle" font-family="Helvetica" font-size="13" transform="rotate(-90 24.0 250.0)">compactness  m̃(x) / x  (≡ 2Gm/(c²r))</text>
<line x1="72.0" y1="428" x2="72.0" y2="433" stroke="black" stroke-width="0.8"/>
<text x="72.0" y="446" text-anchor="middle" font-family="Helvetica" font-size="10">0.0e+00</text>
<line x1="195.2" y1="428" x2="195.2" y2="433" stroke="black" stroke-width="0.8"/>
<text x="195.2" y="446" text-anchor="middle" font-family="Helvetica" font-size="10">0.2</text>
<line x1="318.4" y1="428" x2="318.4" y2="433" stroke="black" stroke-width="0.8"/>
<text x="318.4" y="446" text-anchor="middle" font-family="Helvetica" font-size="10">0.4</text>
<line x1="441.59999999999997" y1="428" x2="441.59999999999997" y2="433" stroke="black" stroke-width="0.8"/>
<text x="441.59999999999997" y="446" text-anchor="middle" font-family="Helvetica" font-size="10">0.6</text>
<line x1="564.8" y1="428" x2="564.8" y2="433" stroke="black" stroke-width="0.8"/>
<text x="564.8" y="446" text-anchor="middle" font-family="Helvetica" font-size="10">0.8</text>
<line x1="688.0" y1="428" x2="688.0" y2="433" stroke="black" stroke-width="0.8"/>
<text x="688.0" y="446" text-anchor="middle" font-family="Helvetica" font-size="10">1</text>
<line x1="67" y1="428.0" x2="72" y2="428.0" stroke="black" stroke-width="0.8"/>
<text x="64" y="432.0" text-anchor="end" font-family="Helvetica" font-size="10">0.0e+00</text>
<line x1="67" y1="356.8" x2="72" y2="356.8" stroke="black" stroke-width="0.8"/>
<text x="64" y="360.8" text-anchor="end" font-family="Helvetica" font-size="10">0.2</text>
<line x1="67" y1="285.6" x2="72" y2="285.6" stroke="black" stroke-width="0.8"/>
<text x="64" y="289.6" text-anchor="end" font-family="Helvetica" font-size="10">0.4</text>
<line x1="67" y1="214.4" x2="72" y2="214.4" stroke="black" stroke-width="0.8"/>
<text x="64" y="218.4" text-anchor="end" font-family="Helvetica" font-size="10">0.6</text>
<line x1="67" y1="143.2" x2="72" y2="143.2" stroke="black" stroke-width="0.8"/>
<text x="64" y="147.2" text-anchor="end" font-family="Helvetica" font-size="10">0.8</text>
<line x1="67" y1="72.0" x2="72" y2="72.0" stroke="black" stroke-width="0.8"/>
<text x="64" y="76.0" text-anchor="end" font-family="Helvetica" font-size="10">1</text>
<line x1="195.2" y1="72" x2="195.2" y2="428" stroke="#eee" stroke-width="0.5"/>
<line x1="318.4" y1="72" x2="318.4" y2="428" stroke="#eee" stroke-width="0.5"/>
<line x1="441.59999999999997" y1="72" x2="441.59999999999997" y2="428" stroke="#eee" stroke-width="0.5"/>
<line x1="564.8" y1="72" x2="564.8" y2="428" stroke="#eee" stroke-width="0.5"/>
<line x1="72" y1="356.8" x2="688" y2="356.8" stroke="#eee" stroke-width="0.5"/>
<line x1="72" y1="285.6" x2="688" y2="285.6" stroke="#eee" stroke-width="0.5"/>
<line x1="72" y1="214.4" x2="688" y2="214.4" stroke="#eee" stroke-width="0.5"/>
<line x1="72" y1="143.2" x2="688" y2="143.2" stroke="#eee" stroke-width="0.5"/>
<line x1="72" y1="275.42857142857144" x2="688" y2="275.42857142857144" stroke="#c2272d" stroke-width="1.5" stroke-dasharray="4,3"/>
<text x="683" y="271.42857142857144" text-anchor="end" font-family="Helvetica" font-size="11" fill="#c2272d">3/7 ≈ 0.4286 (singular isothermal)</text>
<line x1="72" y1="72.0" x2="688" y2="72.0" stroke="#444" stroke-width="1.5" stroke-dasharray="2,3"/>
<text x="683" y="68.0" text-anchor="end" font-family="Helvetica" font-size="11" fill="#444">horizonte (m̃/x = 1)</text>

<path d="M 72.01,428.00 L 72.01,428.00 L 72.01,428.00 L 72.01,428.00 L 72.01,428.00 L 72.01,428.00 L 72.01,428.00 L 72.01,428.00 L 72.01,428.00 L 72.01,428.00 L 72.01,428.00 L 72.01,428.00 L 72.01,428.00 L 72.01,428.00 L 72.01,428.00 L 72.01,428.00 L 72.01,428.00 L 72.01,428.00 L 72.01,428.00 L 72.01,428.00 L 72.01,428.00 L 72.01,428.00 L 72.01,428.00 L 72.01,428.00 L 72.01,428.00 L 72.01,428.00 L 72.01,428.00 L 72.01,428.00 L 72.01,428.00 L 72.01,428.00 L 72.01,428.00 L 72.01,428.00 L 72.01,428.00 L 72.01,428.00 L 72.01,428.00 L 72.01,428.00 L 72.01,428.00 L 72.01,428.00 L 72.01,428.00 L 72.01,428.00 L 72.01,428.00 L 72.01,428.00 L 72.01,428.00 L 72.01,428.00 L 72.01,428.00 L 72.01,428.00 L 72.01,428.00 L 72.01,428.00 L 72.01,428.00 L 72.01,428.00 L 72.01,428.00 L 72.01,428.00 L 72.01,428.00 L 72.01,428.00 L 72.01,428.00 L 72.01,428.00 L 72.01,428.00 L 72.01,428.00 L 72.01,428.00 L 72.01,428.00 L 72.01,428.00 L 72.01,428.00 L 72.01,428.00 L 72.01,428.00 L 72.01,428.00 L 72.01,428.00 L 72.01,428.00 L 72.01,428.00 L 72.01,428.00 L 72.01,428.00 L 72.01,428.00 L 72.01,428.00 L 72.01,428.00 L 72.01,428.00 L 72.01,428.00 L 72.01,428.00 L 72.01,428.00 L 72.01,428.00 L 72.01,428.00 L 72.01,428.00 L 72.01,428.00 L 72.01,428.00 L 72.01,428.00 L 72.01,428.00 L 72.01,428.00 L 72.01,428.00 L 72.01,428.00 L 72.01,428.00 L 72.01,428.00 L 72.01,428.00 L 72.02,428.00 L 72.02,428.00 L 72.02,428.00 L 72.02,428.00 L 72.02,428.00 L 72.02,428.00 L 72.02,428.00 L 72.02,428.00 L 72.02,428.00 L 72.02,428.00 L 72.02,428.00 L 72.02,428.00 L 72.02,428.00 L 72.02,428.00 L 72.02,428.00 L 72.02,428.00 L 72.02,428.00 L 72.02,428.00 L 72.02,428.00 L 72.02,428.00 L 72.02,428.00 L 72.02,428.00 L 72.02,428.00 L 72.02,428.00 L 72.02,428.00 L 72.02,428.00 L 72.02,428.00 L 72.02,428.00 L 72.02,428.00 L 72.02,428.00 L 72.02,428.00 L 72.02,428.00 L 72.02,428.00 L 72.02,428.00 L 72.02,428.00 L 72.02,428.00 L 72.02,428.00 L 72.02,428.00 L 72.02,428.00 L 72.02,428.00 L 72.02,428.00 L 72.02,428.00 L 72.02,428.00 L 72.02,427.99 L 72.02,427.99 L 72.02,427.99 L 72.02,427.99 L 72.02,427.99 L 72.02,427.99 L 72.02,427.99 L 72.02,427.99 L 72.03,427.99 L 72.03,427.99 L 72.03,427.99 L 72.03,427.99 L 72.03,427.99 L 72.03,427.99 L 72.03,427.99 L 72.03,427.99 L 72.03,427.99 L 72.03,427.99 L 72.03,427.99 L 72.03,427.99 L 72.03,427.99 L 72.03,427.99 L 72.03,427.99 L 72.03,427.99 L 72.03,427.99 L 72.03,427.99 L 72.03,427.99 L 72.03,427.99 L 72.03,427.99 L 72.03,427.99 L 72.03,427.99 L 72.03,427.99 L 72.03,427.99 L 72.03,427.99 L 72.03,427.99 L 72.03,427.99 L 72.03,427.99 L 72.03,427.99 L 72.03,427.99 L 72.03,427.99 L 72.03,427.99 L 72.03,427.99 L 72.04,427.99 L 72.04,427.99 L 72.04,427.99 L 72.04,427.99 L 72.04,427.99 L 72.04,427.99 L 72.04,427.99 L 72.04,427.99 L 72.04,427.99 L 72.04,427.99 L 72.04,427.99 L 72.04,427.99 L 72.04,427.99 L 72.04,427.98 L 72.04,427.98 L 72.04,427.98 L 72.04,427.98 L 72.04,427.98 L 72.04,427.98 L 72.04,427.98 L 72.04,427.98 L 72.04,427.98 L 72.04,427.98 L 72.04,427.98 L 72.04,427.98 L 72.05,427.98 L 72.05,427.98 L 72.05,427.98 L 72.05,427.98 L 72.05,427.98 L 72.05,427.98 L 72.05,427.98 L 72.05,427.98 L 72.05,427.98 L 72.05,427.98 L 72.05,427.98 L 72.05,427.98 L 72.05,427.98 L 72.05,427.98 L 72.05,427.97 L 72.05,427.97 L 72.05,427.97 L 72.05,427.97 L 72.05,427.97 L 72.05,427.97 L 72.05,427.97 L 72.06,427.97 L 72.06,427.97 L 72.06,427.97 L 72.06,427.97 L 72.06,427.97 L 72.06,427.97 L 72.06,427.97 L 72.06,427.97 L 72.06,427.97 L 72.06,427.97 L 72.06,427.96 L 72.06,427.96 L 72.06,427.96 L 72.06,427.96 L 72.06,427.96 L 72.06,427.96 L 72.07,427.96 L 72.07,427.96 L 72.07,427.96 L 72.07,427.96 L 72.07,427.96 L 72.07,427.96 L 72.07,427.96 L 72.07,427.95 L 72.07,427.95 L 72.07,427.95 L 72.07,427.95 L 72.07,427.95 L 72.07,427.95 L 72.07,427.95 L 72.07,427.95 L 72.08,427.95 L 72.08,427.95 L 72.08,427.94 L 72.08,427.94 L 72.08,427.94 L 72.08,427.94 L 72.08,427.94 L 72.08,427.94 L 72.08,427.94 L 72.08,427.94 L 72.08,427.93 L 72.08,427.93 L 72.09,427.93 L 72.09,427.93 L 72.09,427.93 L 72.09,427.93 L 72.09,427.93 L 72.09,427.92 L 72.09,427.92 L 72.09,427.92 L 72.09,427.92 L 72.09,427.92 L 72.09,427.92 L 72.10,427.92 L 72.10,427.91 L 72.10,427.91 L 72.10,427.91 L 72.10,427.91 L 72.10,427.91 L 72.10,427.90 L 72.10,427.90 L 72.10,427.90 L 72.10,427.90 L 72.10,427.90 L 72.11,427.89 L 72.11,427.89 L 72.11,427.89 L 72.11,427.89 L 72.11,427.89 L 72.11,427.88 L 72.11,427.88 L 72.11,427.88 L 72.11,427.88 L 72.12,427.87 L 72.12,427.87 L 72.12,427.87 L 72.12,427.87 L 72.12,427.86 L 72.12,427.86 L 72.12,427.86 L 72.12,427.86 L 72.13,427.85 L 72.13,427.85 L 72.13,427.85 L 72.13,427.84 L 72.13,427.84 L 72.13,427.84 L 72.13,427.83 L 72.13,427.83 L 72.14,427.83 L 72.14,427.82 L 72.14,427.82 L 72.14,427.82 L 72.14,427.81 L 72.14,427.81 L 72.14,427.80 L 72.15,427.80 L 72.15,427.80 L 72.15,427.79 L 72.15,427.79 L 72.15,427.78 L 72.15,427.78 L 72.15,427.78 L 72.16,427.77 L 72.16,427.77 L 72.16,427.76 L 72.16,427.76 L 72.16,427.75 L 72.16,427.75 L 72.17,427.74 L 72.17,427.74 L 72.17,427.73 L 72.17,427.73 L 72.17,427.72 L 72.17,427.72 L 72.18,427.71 L 72.18,427.70 L 72.18,427.70 L 72.18,427.69 L 72.18,427.69 L 72.19,427.68 L 72.19,427.67 L 72.19,427.67 L 72.19,427.66 L 72.19,427.65 L 72.19,427.65 L 72.20,427.64 L 72.20,427.63 L 72.20,427.62 L 72.20,427.62 L 72.20,427.61 L 72.21,427.60 L 72.21,427.59 L 72.21,427.58 L 72.21,427.58 L 72.21,427.57 L 72.22,427.56 L 72.22,427.55 L 72.22,427.54 L 72.22,427.53 L 72.23,427.52 L 72.23,427.51 L 72.23,427.50 L 72.23,427.49 L 72.23,427.48 L 72.24,427.47 L 72.24,427.46 L 72.24,427.45 L 72.24,427.44 L 72.25,427.43 L 72.25,427.42 L 72.25,427.41 L 72.25,427.39 L 72.26,427.38 L 72.26,427.37 L 72.26,427.36 L 72.26,427.34 L 72.27,427.33 L 72.27,427.32 L 72.27,427.30 L 72.28,427.29 L 72.28,427.28 L 72.28,427.26 L 72.28,427.25 L 72.29,427.23 L 72.29,427.22 L 72.29,427.20 L 72.30,427.18 L 72.30,427.17 L 72.30,427.15 L 72.30,427.13 L 72.31,427.12 L 72.31,427.10 L 72.31,427.08 L 72.32,427.06 L 72.32,427.04 L 72.32,427.03 L 72.33,427.01 L 72.33,426.99 L 72.33,426.97 L 72.34,426.95 L 72.34,426.92 L 72.34,426.90 L 72.35,426.88 L 72.35,426.86 L 72.35,426.84 L 72.36,426.81 L 72.36,426.79 L 72.36,426.76 L 72.37,426.74 L 72.37,426.72 L 72.37,426.69 L 72.38,426.66 L 72.38,426.64 L 72.39,426.61 L 72.39,426.58 L 72.39,426.55 L 72.40,426.52 L 72.40,426.50 L 72.41,426.47 L 72.41,426.44 L 72.41,426.40 L 72.42,426.37 L 72.42,426.34 L 72.43,426.31 L 72.43,426.27 L 72.43,426.24 L 72.44,426.20 L 72.44,426.17 L 72.45,426.13 L 72.45,426.09 L 72.46,426.06 L 72.46,426.02 L 72.47,425.98 L 72.47,425.94 L 72.48,425.90 L 72.48,425.86 L 72.48,425.81 L 72.49,425.77 L 72.49,425.73 L 72.50,425.68 L 72.50,425.63 L 72.51,425.59 L 72.51,425.54 L 72.52,425.49 L 72.52,425.44 L 72.53,425.39 L 72.53,425.34 L 72.54,425.29 L 72.55,425.23 L 72.55,425.18 L 72.56,425.12 L 72.56,425.07 L 72.57,425.01 L 72.57,424.95 L 72.58,424.89 L 72.58,424.83 L 72.59,424.77 L 72.60,424.70 L 72.60,424.64 L 72.61,424.57 L 72.61,424.50 L 72.62,424.43 L 72.63,424.36 L 72.63,424.29 L 72.64,424.22 L 72.65,424.15 L 72.65,424.07 L 72.66,423.99 L 72.66,423.92 L 72.67,423.84 L 72.68,423.75 L 72.68,423.67 L 72.69,423.59 L 72.70,423.50 L 72.70,423.41 L 72.71,423.32 L 72.72,423.23 L 72.73,423.14 L 72.73,423.04 L 72.74,422.95 L 72.75,422.85 L 72.75,422.75 L 72.76,422.65 L 72.77,422.54 L 72.78,422.44 L 72.79,422.33 L 72.79,422.22 L 72.80,422.11 L 72.81,421.99 L 72.82,421.88 L 72.82,421.76 L 72.83,421.64 L 72.84,421.51 L 72.85,421.39 L 72.86,421.26 L 72.87,421.13 L 72.87,421.00 L 72.88,420.86 L 72.89,420.73 L 72.90,420.59 L 72.91,420.45 L 72.92,420.30 L 72.93,420.15 L 72.94,420.00 L 72.95,419.85 L 72.95,419.70 L 72.96,419.54 L 72.97,419.38 L 72.98,419.21 L 72.99,419.05 L 73.00,418.88 L 73.01,418.70 L 73.02,418.53 L 73.03,418.35 L 73.04,418.16 L 73.05,417.98 L 73.06,417.79 L 73.07,417.60 L 73.08,417.40 L 73.09,417.20 L 73.10,417.00 L 73.11,416.79 L 73.13,416.59 L 73.14,416.37 L 73.15,416.16 L 73.16,415.93 L 73.17,415.71 L 73.18,415.48 L 73.19,415.25 L 73.20,415.01 L 73.22,414.77 L 73.23,414.53 L 73.24,414.28 L 73.25,414.03 L 73.26,413.77 L 73.27,413.51 L 73.29,413.25 L 73.30,412.98 L 73.31,412.70 L 73.32,412.43 L 73.34,412.14 L 73.35,411.85 L 73.36,411.56 L 73.38,411.27 L 73.39,410.96 L 73.40,410.66 L 73.42,410.35 L 73.43,410.03 L 73.44,409.71 L 73.46,409.38 L 73.47,409.05 L 73.48,408.72 L 73.50,408.37 L 73.51,408.03 L 73.53,407.68 L 73.54,407.32 L 73.55,406.96 L 73.57,406.59 L 73.58,406.21 L 73.60,405.83 L 73.61,405.45 L 73.63,405.06 L 73.64,404.66 L 73.66,404.26 L 73.68,403.85 L 73.69,403.44 L 73.71,403.02 L 73.72,402.60 L 73.74,402.17 L 73.75,401.73 L 73.77,401.29 L 73.79,400.84 L 73.80,400.38 L 73.82,399.92 L 73.84,399.45 L 73.85,398.98 L 73.87,398.50 L 73.89,398.01 L 73.91,397.52 L 73.92,397.02 L 73.94,396.52 L 73.96,396.01 L 73.98,395.49 L 73.99,394.96 L 74.01,394.43 L 74.03,393.90 L 74.05,393.35 L 74.07,392.81 L 74.09,392.25 L 74.10,391.69 L 74.12,391.12 L 74.14,390.54 L 74.16,389.96 L 74.18,389.37 L 74.20,388.78 L 74.22,388.18 L 74.24,387.57 L 74.26,386.96 L 74.28,386.34 L 74.30,385.71 L 74.32,385.08 L 74.34,384.44 L 74.36,383.80 L 74.38,383.14 L 74.40,382.49 L 74.42,381.82 L 74.44,381.15 L 74.47,380.48 L 74.49,379.80 L 74.51,379.11 L 74.53,378.42 L 74.55,377.72 L 74.57,377.01 L 74.60,376.30 L 74.62,375.58 L 74.64,374.86 L 74.66,374.13 L 74.69,373.40 L 74.71,372.66 L 74.73,371.92 L 74.75,371.17 L 74.78,370.41 L 74.80,369.65 L 74.82,368.89 L 74.85,368.12 L 74.87,367.35 L 74.90,366.57 L 74.92,365.79 L 74.94,365.00 L 74.97,364.21 L 74.99,363.41 L 75.02,362.61 L 75.04,361.80 L 75.07,361.00 L 75.09,360.18 L 75.12,359.37 L 75.14,358.55 L 75.17,357.73 L 75.19,356.90 L 75.22,356.07 L 75.24,355.24 L 75.27,354.40 L 75.29,353.57 L 75.32,352.73 L 75.35,351.88 L 75.37,351.04 L 75.40,350.19 L 75.43,349.34 L 75.45,348.49 L 75.48,347.63 L 75.51,346.78 L 75.53,345.92 L 75.56,345.06 L 75.59,344.21 L 75.62,343.35 L 75.64,342.48 L 75.67,341.62 L 75.70,340.76 L 75.73,339.90 L 75.75,339.03 L 75.78,338.17 L 75.81,337.31 L 75.84,336.44 L 75.87,335.58 L 75.90,334.72 L 75.92,333.85 L 75.95,332.99 L 75.98,332.13 L 76.01,331.27 L 76.04,330.41 L 76.07,329.56 L 76.10,328.70 L 76.13,327.85 L 76.16,326.99 L 76.19,326.14 L 76.22,325.29 L 76.25,324.45 L 76.28,323.60 L 76.31,322.76 L 76.34,321.92 L 76.37,321.08 L 76.40,320.25 L 76.43,319.41 L 76.46,318.59 L 76.49,317.76 L 76.52,316.94 L 76.56,316.12 L 76.59,315.30 L 76.62,314.49 L 76.65,313.68 L 76.68,312.88 L 76.71,312.08 L 76.74,311.28 L 76.78,310.49 L 76.81,309.70 L 76.84,308.91 L 76.87,308.13 L 76.90,307.36 L 76.94,306.58 L 76.97,305.82 L 77.00,305.06 L 77.04,304.30 L 77.07,303.55 L 77.10,302.80 L 77.13,302.06 L 77.17,301.32 L 77.20,300.59 L 77.23,299.86 L 77.27,299.14 L 77.30,298.42 L 77.33,297.71 L 77.37,297.01 L 77.40,296.31 L 77.44,295.61 L 77.47,294.92 L 77.50,294.24 L 77.54,293.56 L 77.57,292.89 L 77.61,292.22 L 77.64,291.56 L 77.68,290.91 L 77.71,290.26 L 77.75,289.62 L 77.78,288.98 L 77.82,288.35 L 77.85,287.72 L 77.89,287.11 L 77.92,286.49 L 77.96,285.89 L 78.00,285.29 L 78.03,284.69 L 78.07,284.10 L 78.10,283.52 L 78.14,282.94 L 78.18,282.37 L 78.21,281.81 L 78.25,281.25 L 78.29,280.70 L 78.32,280.15 L 78.36,279.62 L 78.40,279.08 L 78.43,278.56 L 78.47,278.03 L 78.51,277.52 L 78.55,277.01 L 78.58,276.51 L 78.62,276.01 L 78.66,275.52 L 78.70,275.04 L 78.74,274.56 L 78.78,274.09 L 78.81,273.62 L 78.85,273.16 L 78.89,272.71 L 78.93,272.26 L 78.97,271.82 L 79.01,271.38 L 79.05,270.95 L 79.09,270.53 L 79.13,270.11 L 79.17,269.70 L 79.21,269.29 L 79.25,268.89 L 79.29,268.50 L 79.33,268.11 L 79.37,267.73 L 79.41,267.35 L 79.45,266.98 L 79.49,266.61 L 79.53,266.25 L 79.57,265.89 L 79.61,265.55 L 79.65,265.20 L 79.69,264.86 L 79.74,264.53 L 79.78,264.20 L 79.82,263.88 L 79.86,263.57 L 79.90,263.25 L 79.95,262.95 L 79.99,262.65 L 80.03,262.35 L 80.07,262.06 L 80.12,261.78 L 80.16,261.50 L 80.20,261.23 L 80.25,260.96 L 80.29,260.69 L 80.34,260.43 L 80.38,260.18 L 80.42,259.93 L 80.47,259.68 L 80.51,259.45 L 80.56,259.21 L 80.60,258.98 L 80.65,258.76 L 80.69,258.54 L 80.74,258.32 L 80.79,258.11 L 80.83,257.90 L 80.88,257.70 L 80.92,257.50 L 80.97,257.31 L 81.02,257.12 L 81.06,256.94 L 81.11,256.76 L 81.16,256.58 L 81.21,256.41 L 81.25,256.25 L 81.30,256.09 L 81.35,255.93 L 81.40,255.77 L 81.45,255.62 L 81.49,255.48 L 81.54,255.34 L 81.59,255.20 L 81.64,255.07 L 81.69,254.94 L 81.74,254.81 L 81.79,254.69 L 81.84,254.57 L 81.89,254.46 L 81.94,254.35 L 81.99,254.24 L 82.05,254.14 L 82.10,254.04 L 82.15,253.95 L 82.20,253.85 L 82.25,253.77 L 82.30,253.68 L 82.36,253.60 L 82.41,253.52 L 82.46,253.45 L 82.52,253.38 L 82.57,253.31 L 82.62,253.25 L 82.68,253.19 L 82.73,253.13 L 82.79,253.08 L 82.84,253.03 L 82.90,252.98 L 82.95,252.93 L 83.01,252.89 L 83.06,252.85 L 83.12,252.82 L 83.18,252.79 L 83.23,252.76 L 83.29,252.73 L 83.35,252.71 L 83.41,252.69 L 83.46,252.67 L 83.52,252.65 L 83.58,252.64 L 83.64,252.63 L 83.70,252.63 L 83.76,252.62 L 83.82,252.62 L 83.88,252.62 L 83.94,252.63 L 84.00,252.63 L 84.06,252.64 L 84.12,252.65 L 84.18,252.67 L 84.24,252.68 L 84.30,252.70 L 84.37,252.73 L 84.43,252.75 L 84.49,252.78 L 84.56,252.80 L 84.62,252.84 L 84.68,252.87 L 84.75,252.90 L 84.81,252.94 L 84.88,252.98 L 84.94,253.02 L 85.01,253.07 L 85.08,253.11 L 85.14,253.16 L 85.21,253.21 L 85.28,253.27 L 85.34,253.32 L 85.41,253.38 L 85.48,253.43 L 85.55,253.49 L 85.62,253.56 L 85.69,253.62 L 85.76,253.69 L 85.83,253.75 L 85.90,253.82 L 85.97,253.89 L 86.04,253.97 L 86.11,254.04 L 86.18,254.12 L 86.26,254.20 L 86.33,254.28 L 86.40,254.36 L 86.48,254.44 L 86.55,254.52 L 86.63,254.61 L 86.70,254.70 L 86.78,254.79 L 86.85,254.88 L 86.93,254.97 L 87.01,255.06 L 87.08,255.16 L 87.16,255.25 L 87.24,255.35 L 87.32,255.45 L 87.40,255.55 L 87.48,255.65 L 87.56,255.75 L 87.64,255.86 L 87.72,255.96 L 87.80,256.07 L 87.88,256.18 L 87.96,256.29 L 88.04,256.40 L 88.13,256.51 L 88.21,256.62 L 88.29,256.73 L 88.38,256.85 L 88.46,256.96 L 88.55,257.08 L 88.64,257.19 L 88.72,257.31 L 88.81,257.43 L 88.90,257.55 L 88.99,257.67 L 89.07,257.79 L 89.16,257.92 L 89.25,258.04 L 89.34,258.17 L 89.43,258.29 L 89.52,258.42 L 89.62,258.54 L 89.71,258.67 L 89.80,258.80 L 89.89,258.93 L 89.99,259.06 L 90.08,259.19 L 90.18,259.32 L 90.27,259.45 L 90.37,259.58 L 90.47,259.72 L 90.56,259.85 L 90.66,259.98 L 90.76,260.12 L 90.86,260.25 L 90.96,260.39 L 91.06,260.52 L 91.16,260.66 L 91.26,260.80 L 91.36,260.94 L 91.47,261.07 L 91.57,261.21 L 91.67,261.35 L 91.78,261.49 L 91.88,261.63 L 91.99,261.77 L 92.10,261.91 L 92.20,262.05 L 92.31,262.19 L 92.42,262.33 L 92.53,262.47 L 92.64,262.61 L 92.75,262.75 L 92.86,262.90 L 92.97,263.04 L 93.09,263.18 L 93.20,263.32 L 93.31,263.47 L 93.43,263.61 L 93.54,263.75 L 93.66,263.89 L 93.78,264.04 L 93.89,264.18 L 94.01,264.32 L 94.13,264.47 L 94.25,264.61 L 94.37,264.75 L 94.49,264.90 L 94.61,265.04 L 94.74,265.18 L 94.86,265.32 L 94.98,265.47 L 95.11,265.61 L 95.23,265.75 L 95.36,265.90 L 95.49,266.04 L 95.62,266.18 L 95.74,266.32 L 95.87,266.47 L 96.00,266.61 L 96.14,266.75 L 96.27,266.89 L 96.40,267.03 L 96.53,267.17 L 96.67,267.31 L 96.80,267.46 L 96.94,267.60 L 97.08,267.74 L 97.22,267.88 L 97.35,268.02 L 97.49,268.16 L 97.63,268.29 L 97.78,268.43 L 97.92,268.57 L 98.06,268.71 L 98.21,268.85 L 98.35,268.98 L 98.50,269.12 L 98.64,269.26 L 98.79,269.39 L 98.94,269.53 L 99.09,269.67 L 99.24,269.80 L 99.39,269.94 L 99.54,270.07 L 99.70,270.20 L 99.85,270.34 L 100.00,270.47 L 100.16,270.60 L 100.32,270.73 L 100.48,270.86 L 100.64,270.99 L 100.80,271.12 L 100.96,271.25 L 101.12,271.38 L 101.28,271.51 L 101.45,271.64 L 101.61,271.76 L 101.78,271.89 L 101.94,272.02 L 102.11,272.14 L 102.28,272.27 L 102.45,272.39 L 102.62,272.52 L 102.80,272.64 L 102.97,272.76 L 103.14,272.88 L 103.32,273.00 L 103.50,273.12 L 103.67,273.24 L 103.85,273.36 L 104.03,273.48 L 104.22,273.60 L 104.40,273.71 L 104.58,273.83 L 104.77,273.95 L 104.95,274.06 L 105.14,274.17 L 105.33,274.29 L 105.52,274.40 L 105.71,274.51 L 105.90,274.62 L 106.09,274.73 L 106.29,274.84 L 106.48,274.95 L 106.68,275.06 L 106.88,275.17 L 107.07,275.27 L 107.27,275.38 L 107.48,275.48 L 107.68,275.59 L 107.88,275.69 L 108.09,275.79 L 108.29,275.89 L 108.50,275.99 L 108.71,276.09 L 108.92,276.19 L 109.13,276.29 L 109.35,276.39 L 109.56,276.48 L 109.78,276.58 L 109.99,276.67 L 110.21,276.77 L 110.43,276.86 L 110.65,276.95 L 110.88,277.04 L 111.10,277.13 L 111.33,277.22 L 111.55,277.31 L 111.78,277.40 L 112.01,277.49 L 112.24,277.57 L 112.47,277.66 L 112.71,277.74 L 112.94,277.82 L 113.18,277.91 L 113.42,277.99 L 113.66,278.07 L 113.90,278.15 L 114.14,278.23 L 114.38,278.30 L 114.63,278.38 L 114.88,278.46 L 115.13,278.53 L 115.38,278.61 L 115.63,278.68 L 115.88,278.75 L 116.14,278.82 L 116.39,278.89 L 116.65,278.96 L 116.91,279.03 L 117.17,279.10 L 117.43,279.17 L 117.70,279.23 L 117.96,279.30 L 118.23,279.36 L 118.50,279.43 L 118.77,279.49 L 119.05,279.55 L 119.32,279.61 L 119.60,279.67 L 119.87,279.73 L 120.15,279.78 L 120.43,279.84 L 120.72,279.90 L 121.00,279.95 L 121.29,280.01 L 121.57,280.06 L 121.86,280.11 L 122.16,280.16 L 122.45,280.21 L 122.74,280.26 L 123.04,280.31 L 123.34,280.36 L 123.64,280.40 L 123.94,280.45 L 124.25,280.49 L 124.55,280.54 L 124.86,280.58 L 125.17,280.62 L 125.48,280.66 L 125.80,280.70 L 126.11,280.74 L 126.43,280.78 L 126.75,280.82 L 127.07,280.86 L 127.39,280.89 L 127.72,280.93 L 128.04,280.96 L 128.37,280.99 L 128.70,281.03 L 129.04,281.06 L 129.37,281.09 L 129.71,281.12 L 130.05,281.15 L 130.39,281.17 L 130.73,281.20 L 131.08,281.23 L 131.42,281.25 L 131.77,281.28 L 132.12,281.30 L 132.48,281.32 L 132.83,281.35 L 133.19,281.37 L 133.55,281.39 L 133.91,281.41 L 134.28,281.43 L 134.64,281.44 L 135.01,281.46 L 135.38,281.48 L 135.76,281.49 L 136.13,281.51 L 136.51,281.52 L 136.89,281.53 L 137.27,281.55 L 137.65,281.56 L 138.04,281.57 L 138.43,281.58 L 138.82,281.59 L 139.21,281.60 L 139.61,281.60 L 140.01,281.61 L 140.41,281.62 L 140.81,281.62 L 141.22,281.63 L 141.62,281.63 L 142.03,281.64 L 142.45,281.64 L 142.86,281.64 L 143.28,281.64 L 143.70,281.64 L 144.12,281.64 L 144.54,281.64 L 144.97,281.64 L 145.40,281.64 L 145.83,281.63 L 146.27,281.63 L 146.71,281.63 L 147.15,281.62 L 147.59,281.61 L 148.03,281.61 L 148.48,281.60 L 148.93,281.59 L 149.38,281.59 L 149.84,281.58 L 150.30,281.57 L 150.76,281.56 L 151.22,281.55 L 151.69,281.54 L 152.16,281.52 L 152.63,281.51 L 153.10,281.50 L 153.58,281.48 L 154.06,281.47 L 154.54,281.46 L 155.03,281.44 L 155.52,281.42 L 156.01,281.41 L 156.50,281.39 L 157.00,281.37 L 157.50,281.36 L 158.00,281.34 L 158.51,281.32 L 159.02,281.30 L 159.53,281.28 L 160.04,281.26 L 160.56,281.24 L 161.08,281.22 L 161.61,281.19 L 162.13,281.17 L 162.66,281.15 L 163.19,281.12 L 163.73,281.10 L 164.27,281.08 L 164.81,281.05 L 165.36,281.03 L 165.90,281.00 L 166.46,280.98 L 167.01,280.95 L 167.57,280.92 L 168.13,280.89 L 168.69,280.87 L 169.26,280.84 L 169.83,280.81 L 170.40,280.78 L 170.98,280.75 L 171.56,280.72 L 172.15,280.69 L 172.73,280.66 L 173.32,280.63 L 173.92,280.60 L 174.51,280.57 L 175.11,280.54 L 175.72,280.51 L 176.33,280.48 L 176.94,280.44 L 177.55,280.41 L 178.17,280.38 L 178.78,280.34 L 179.40,280.31 L 180.02,280.28 L 180.63,280.25 L 181.25,280.21 L 181.86,280.18 L 182.48,280.15 L 183.10,280.11 L 183.71,280.08 L 184.33,280.04 L 184.94,280.01 L 185.56,279.98 L 186.18,279.94 L 186.79,279.91 L 187.41,279.88 L 188.02,279.84 L 188.64,279.81 L 189.26,279.78 L 189.87,279.74 L 190.49,279.71 L 191.10,279.68 L 191.72,279.64 L 192.34,279.61 L 192.95,279.58 L 193.57,279.54 L 194.18,279.51 L 194.80,279.48 L 195.42,279.44 L 196.03,279.41 L 196.65,279.38 L 197.26,279.34 L 197.88,279.31 L 198.50,279.28 L 199.11,279.25 L 199.73,279.21 L 200.34,279.18 L 200.96,279.15 L 201.58,279.12 L 202.19,279.08 L 202.81,279.05 L 203.42,279.02 L 204.04,278.99 L 204.66,278.96 L 205.27,278.92 L 205.89,278.89 L 206.50,278.86 L 207.12,278.83 L 207.74,278.80 L 208.35,278.77 L 208.97,278.74 L 209.58,278.70 L 210.20,278.67 L 210.82,278.64 L 211.43,278.61 L 212.05,278.58 L 212.66,278.55 L 213.28,278.52 L 213.90,278.49 L 214.51,278.46 L 215.13,278.43 L 215.74,278.40 L 216.36,278.37 L 216.98,278.34 L 217.59,278.31 L 218.21,278.28 L 218.82,278.25 L 219.44,278.23 L 220.06,278.20 L 220.67,278.17 L 221.29,278.14 L 221.90,278.11 L 222.52,278.08 L 223.14,278.05 L 223.75,278.03 L 224.37,278.00 L 224.98,277.97 L 225.60,277.94 L 226.22,277.91 L 226.83,277.89 L 227.45,277.86 L 228.06,277.83 L 228.68,277.81 L 229.30,277.78 L 229.91,277.75 L 230.53,277.73 L 231.14,277.70 L 231.76,277.67 L 232.38,277.65 L 232.99,277.62 L 233.61,277.59 L 234.22,277.57 L 234.84,277.54 L 235.46,277.52 L 236.07,277.49 L 236.69,277.47 L 237.30,277.44 L 237.92,277.42 L 238.54,277.39 L 239.15,277.37 L 239.77,277.34 L 240.38,277.32 L 241.00,277.29 L 241.62,277.27 L 242.23,277.25 L 242.85,277.22 L 243.46,277.20 L 244.08,277.17 L 244.70,277.15 L 245.31,277.13 L 245.93,277.10 L 246.54,277.08 L 247.16,277.06 L 247.78,277.04 L 248.39,277.01 L 249.01,276.99 L 249.62,276.97 L 250.24,276.94 L 250.86,276.92 L 251.47,276.90 L 252.09,276.88 L 252.70,276.86 L 253.32,276.83 L 253.94,276.81 L 254.55,276.79 L 255.17,276.77 L 255.78,276.75 L 256.40,276.73 L 257.02,276.71 L 257.63,276.69 L 258.25,276.67 L 258.86,276.65 L 259.48,276.62 L 260.10,276.60 L 260.71,276.58 L 261.33,276.56 L 261.94,276.54 L 262.56,276.52 L 263.18,276.50 L 263.79,276.48 L 264.41,276.47 L 265.02,276.45 L 265.64,276.43 L 266.26,276.41 L 266.87,276.39 L 267.49,276.37 L 268.10,276.35 L 268.72,276.33 L 269.34,276.31 L 269.95,276.30 L 270.57,276.28 L 271.18,276.26 L 271.80,276.24 L 272.42,276.22 L 273.03,276.20 L 273.65,276.19 L 274.26,276.17 L 274.88,276.15 L 275.50,276.13 L 276.11,276.12 L 276.73,276.10 L 277.34,276.08 L 277.96,276.07 L 278.58,276.05 L 279.19,276.03 L 279.81,276.01 L 280.42,276.00 L 281.04,275.98 L 281.66,275.97 L 282.27,275.95 L 282.89,275.93 L 283.50,275.92 L 284.12,275.90 L 284.74,275.88 L 285.35,275.87 L 285.97,275.85 L 286.58,275.84 L 287.20,275.82 L 287.82,275.81 L 288.43,275.79 L 289.05,275.78 L 289.66,275.76 L 290.28,275.75 L 290.90,275.73 L 291.51,275.72 L 292.13,275.70 L 292.74,275.69 L 293.36,275.67 L 293.98,275.66 L 294.59,275.64 L 295.21,275.63 L 295.82,275.62 L 296.44,275.60 L 297.06,275.59 L 297.67,275.57 L 298.29,275.56 L 298.90,275.55 L 299.52,275.53 L 300.14,275.52 L 300.75,275.51 L 301.37,275.49 L 301.98,275.48 L 302.60,275.47 L 303.22,275.45 L 303.83,275.44 L 304.45,275.43 L 305.06,275.42 L 305.68,275.40 L 306.30,275.39 L 306.91,275.38 L 307.53,275.36 L 308.14,275.35 L 308.76,275.34 L 309.38,275.33 L 309.99,275.32 L 310.61,275.30 L 311.22,275.29 L 311.84,275.28 L 312.46,275.27 L 313.07,275.26 L 313.69,275.24 L 314.30,275.23 L 314.92,275.22 L 315.54,275.21 L 316.15,275.20 L 316.77,275.19 L 317.38,275.18 L 318.00,275.17 L 318.62,275.15 L 319.23,275.14 L 319.85,275.13 L 320.46,275.12 L 321.08,275.11 L 321.70,275.10 L 322.31,275.09 L 322.93,275.08 L 323.54,275.07 L 324.16,275.06 L 324.78,275.05 L 325.39,275.04 L 326.01,275.03 L 326.62,275.02 L 327.24,275.01 L 327.86,275.00 L 328.47,274.99 L 329.09,274.98 L 329.70,274.97 L 330.32,274.96 L 330.94,274.95 L 331.55,274.94 L 332.17,274.93 L 332.78,274.92 L 333.40,274.91 L 334.02,274.90 L 334.63,274.89 L 335.25,274.88 L 335.86,274.87 L 336.48,274.87 L 337.10,274.86 L 337.71,274.85 L 338.33,274.84 L 338.94,274.83 L 339.56,274.82 L 340.18,274.81 L 340.79,274.80 L 341.41,274.80 L 342.02,274.79 L 342.64,274.78 L 343.26,274.77 L 343.87,274.76 L 344.49,274.75 L 345.10,274.75 L 345.72,274.74 L 346.34,274.73 L 346.95,274.72 L 347.57,274.71 L 348.18,274.71 L 348.80,274.70 L 349.42,274.69 L 350.03,274.68 L 350.65,274.68 L 351.26,274.67 L 351.88,274.66 L 352.50,274.65 L 353.11,274.65 L 353.73,274.64 L 354.34,274.63 L 354.96,274.62 L 355.58,274.62 L 356.19,274.61 L 356.81,274.60 L 357.42,274.60 L 358.04,274.59 L 358.66,274.58 L 359.27,274.57 L 359.89,274.57 L 360.50,274.56 L 361.12,274.55 L 361.74,274.55 L 362.35,274.54 L 362.97,274.53 L 363.58,274.53 L 364.20,274.52 L 364.82,274.51 L 365.43,274.51 L 366.05,274.50 L 366.66,274.50 L 367.28,274.49 L 367.90,274.48 L 368.51,274.48 L 369.13,274.47 L 369.74,274.46 L 370.36,274.46 L 370.98,274.45 L 371.59,274.45 L 372.21,274.44 L 372.82,274.44 L 373.44,274.43 L 374.06,274.42 L 374.67,274.42 L 375.29,274.41 L 375.90,274.41 L 376.52,274.40 L 377.14,274.40 L 377.75,274.39 L 378.37,274.38 L 378.98,274.38 L 379.60,274.37 L 380.22,274.37 L 380.83,274.36 L 381.45,274.36 L 382.06,274.35 L 382.68,274.35 L 383.30,274.34 L 383.91,274.34 L 384.53,274.33 L 385.14,274.33 L 385.76,274.32 L 386.38,274.32 L 386.99,274.31 L 387.61,274.31 L 388.22,274.30 L 388.84,274.30 L 389.46,274.29 L 390.07,274.29 L 390.69,274.28 L 391.30,274.28 L 391.92,274.28 L 392.54,274.27 L 393.15,274.27 L 393.77,274.26 L 394.38,274.26 L 395.00,274.25 L 395.62,274.25 L 396.23,274.24 L 396.85,274.24 L 397.46,274.24 L 398.08,274.23 L 398.70,274.23 L 399.31,274.22 L 399.93,274.22 L 400.54,274.22 L 401.16,274.21 L 401.78,274.21 L 402.39,274.20 L 403.01,274.20 L 403.62,274.20 L 404.24,274.19 L 404.86,274.19 L 405.47,274.18 L 406.09,274.18 L 406.70,274.18 L 407.32,274.17 L 407.94,274.17 L 408.55,274.17 L 409.17,274.16 L 409.78,274.16 L 410.40,274.16 L 411.02,274.15 L 411.63,274.15 L 412.25,274.15 L 412.86,274.14 L 413.48,274.14 L 414.10,274.13 L 414.71,274.13 L 415.33,274.13 L 415.94,274.13 L 416.56,274.12 L 417.18,274.12 L 417.79,274.12 L 418.41,274.11 L 419.02,274.11 L 419.64,274.11 L 420.26,274.10 L 420.87,274.10 L 421.49,274.10 L 422.10,274.09 L 422.72,274.09 L 423.34,274.09 L 423.95,274.09 L 424.57,274.08 L 425.18,274.08 L 425.80,274.08 L 426.42,274.07 L 427.03,274.07 L 427.65,274.07 L 428.26,274.07 L 428.88,274.06 L 429.50,274.06 L 430.11,274.06 L 430.73,274.06 L 431.34,274.05 L 431.96,274.05 L 432.58,274.05 L 433.19,274.05 L 433.81,274.04 L 434.42,274.04 L 435.04,274.04 L 435.66,274.04 L 436.27,274.03 L 436.89,274.03 L 437.50,274.03 L 438.12,274.03 L 438.74,274.02 L 439.35,274.02 L 439.97,274.02 L 440.58,274.02 L 441.20,274.02 L 441.82,274.01 L 442.43,274.01 L 443.05,274.01 L 443.66,274.01 L 444.28,274.00 L 444.90,274.00 L 445.51,274.00 L 446.13,274.00 L 446.74,274.00 L 447.36,274.00 L 447.98,273.99 L 448.59,273.99 L 449.21,273.99 L 449.82,273.99 L 450.44,273.99 L 451.06,273.98 L 451.67,273.98 L 452.29,273.98 L 452.90,273.98 L 453.52,273.98 L 454.14,273.98 L 454.75,273.97 L 455.37,273.97 L 455.98,273.97 L 456.60,273.97 L 457.22,273.97 L 457.83,273.97 L 458.45,273.96 L 459.06,273.96 L 459.68,273.96 L 460.30,273.96 L 460.91,273.96 L 461.53,273.96 L 462.14,273.95 L 462.76,273.95 L 463.38,273.95 L 463.99,273.95 L 464.61,273.95 L 465.22,273.95 L 465.84,273.95 L 466.46,273.94 L 467.07,273.94 L 467.69,273.94 L 468.30,273.94 L 468.92,273.94 L 469.54,273.94 L 470.15,273.94 L 470.77,273.94 L 471.38,273.93 L 472.00,273.93 L 472.62,273.93 L 473.23,273.93 L 473.85,273.93 L 474.46,273.93 L 475.08,273.93 L 475.70,273.93 L 476.31,273.93 L 476.93,273.93 L 477.54,273.92 L 478.16,273.92 L 478.78,273.92 L 479.39,273.92 L 480.01,273.92 L 480.62,273.92 L 481.24,273.92 L 481.86,273.92 L 482.47,273.92 L 483.09,273.92 L 483.70,273.91 L 484.32,273.91 L 484.94,273.91 L 485.55,273.91 L 486.17,273.91 L 486.78,273.91 L 487.40,273.91 L 488.02,273.91 L 488.63,273.91 L 489.25,273.91 L 489.86,273.91 L 490.48,273.91 L 491.10,273.91 L 491.71,273.91 L 492.33,273.90 L 492.94,273.90 L 493.56,273.90 L 494.18,273.90 L 494.79,273.90 L 495.41,273.90 L 496.02,273.90 L 496.64,273.90 L 497.26,273.90 L 497.87,273.90 L 498.49,273.90 L 499.10,273.90 L 499.72,273.90 L 500.34,273.90 L 500.95,273.90 L 501.57,273.90 L 502.18,273.90 L 502.80,273.90 L 503.42,273.90 L 504.03,273.89 L 504.65,273.89 L 505.26,273.89 L 505.88,273.89 L 506.50,273.89 L 507.11,273.89 L 507.73,273.89 L 508.34,273.89 L 508.96,273.89 L 509.58,273.89 L 510.19,273.89 L 510.81,273.89 L 511.42,273.89 L 512.04,273.89 L 512.66,273.89 L 513.27,273.89 L 513.89,273.89 L 514.50,273.89 L 515.12,273.89 L 515.74,273.89 L 516.35,273.89 L 516.97,273.89 L 517.58,273.89 L 518.20,273.89 L 518.82,273.89 L 519.43,273.89 L 520.05,273.89 L 520.66,273.89 L 521.28,273.89 L 521.90,273.89 L 522.51,273.89 L 523.13,273.89 L 523.74,273.89 L 524.36,273.89 L 524.98,273.89 L 525.59,273.89 L 526.21,273.89 L 526.82,273.89 L 527.44,273.89 L 528.06,273.89 L 528.67,273.89 L 529.29,273.89 L 529.90,273.89 L 530.52,273.89 L 531.14,273.89 L 531.75,273.89 L 532.37,273.89 L 532.98,273.89 L 533.60,273.89 L 534.22,273.89 L 534.83,273.89 L 535.45,273.89 L 536.06,273.89 L 536.68,273.89 L 537.30,273.89 L 537.91,273.89 L 538.53,273.89 L 539.14,273.89 L 539.76,273.89 L 540.38,273.89 L 540.99,273.89 L 541.61,273.89 L 542.22,273.89 L 542.84,273.89 L 543.46,273.89 L 544.07,273.89 L 544.69,273.89 L 545.30,273.89 L 545.92,273.89 L 546.54,273.89 L 547.15,273.89 L 547.77,273.89 L 548.38,273.89 L 549.00,273.89 L 549.62,273.90 L 550.23,273.90 L 550.85,273.90 L 551.46,273.90 L 552.08,273.90 L 552.70,273.90 L 553.31,273.90 L 553.93,273.90 L 554.54,273.90 L 555.16,273.90 L 555.78,273.90 L 556.39,273.90 L 557.01,273.90 L 557.62,273.90 L 558.24,273.90 L 558.86,273.90 L 559.47,273.90 L 560.09,273.90 L 560.70,273.90 L 561.32,273.90 L 561.94,273.90 L 562.55,273.90 L 563.17,273.90 L 563.78,273.91 L 564.40,273.91 L 565.02,273.91 L 565.63,273.91 L 566.25,273.91 L 566.86,273.91 L 567.48,273.91 L 568.10,273.91 L 568.71,273.91 L 569.33,273.91 L 569.94,273.91 L 570.56,273.91 L 571.18,273.91 L 571.79,273.91 L 572.41,273.91 L 573.02,273.91 L 573.64,273.91 L 574.26,273.92 L 574.87,273.92 L 575.49,273.92 L 576.10,273.92 L 576.72,273.92 L 577.34,273.92 L 577.95,273.92 L 578.57,273.92 L 579.18,273.92 L 579.80,273.92 L 580.42,273.92 L 581.03,273.92 L 581.65,273.92 L 582.26,273.92 L 582.88,273.92 L 583.50,273.93 L 584.11,273.93 L 584.73,273.93 L 585.34,273.93 L 585.96,273.93 L 586.58,273.93 L 587.19,273.93 L 587.81,273.93 L 588.42,273.93 L 589.04,273.93 L 589.66,273.93 L 590.27,273.93 L 590.89,273.93 L 591.50,273.94 L 592.12,273.94 L 592.74,273.94 L 593.35,273.94 L 593.97,273.94 L 594.58,273.94 L 595.20,273.94 L 595.82,273.94 L 596.43,273.94 L 597.05,273.94 L 597.66,273.94 L 598.28,273.94 L 598.90,273.95 L 599.51,273.95 L 600.13,273.95 L 600.74,273.95 L 601.36,273.95 L 601.98,273.95 L 602.59,273.95 L 603.21,273.95 L 603.82,273.95 L 604.44,273.95 L 605.06,273.95 L 605.67,273.95 L 606.29,273.96 L 606.90,273.96 L 607.52,273.96 L 608.14,273.96 L 608.75,273.96 L 609.37,273.96 L 609.98,273.96 L 610.60,273.96 L 611.22,273.96 L 611.83,273.96 L 612.45,273.96 L 613.06,273.97 L 613.68,273.97 L 614.30,273.97 L 614.91,273.97 L 615.53,273.97 L 616.14,273.97 L 616.76,273.97 L 617.38,273.97 L 617.99,273.97 L 618.61,273.97 L 619.22,273.98 L 619.84,273.98 L 620.46,273.98 L 621.07,273.98 L 621.69,273.98 L 622.30,273.98 L 622.92,273.98 L 623.54,273.98 L 624.15,273.98 L 624.77,273.98 L 625.38,273.99 L 626.00,273.99 L 626.62,273.99 L 627.23,273.99 L 627.85,273.99 L 628.46,273.99 L 629.08,273.99 L 629.70,273.99 L 630.31,273.99 L 630.93,273.99 L 631.54,274.00 L 632.16,274.00 L 632.78,274.00 L 633.39,274.00 L 634.01,274.00 L 634.62,274.00 L 635.24,274.00 L 635.86,274.00 L 636.47,274.00 L 637.09,274.01 L 637.70,274.01 L 638.32,274.01 L 638.94,274.01 L 639.55,274.01 L 640.17,274.01 L 640.78,274.01 L 641.40,274.01 L 642.02,274.01 L 642.63,274.02 L 643.25,274.02 L 643.86,274.02 L 644.48,274.02 L 645.10,274.02 L 645.71,274.02 L 646.33,274.02 L 646.94,274.02 L 647.56,274.02 L 648.18,274.03 L 648.79,274.03 L 649.41,274.03 L 650.02,274.03 L 650.64,274.03 L 651.26,274.03 L 651.87,274.03 L 652.49,274.03 L 653.10,274.03 L 653.72,274.04 L 654.34,274.04 L 654.95,274.04 L 655.57,274.04 L 656.18,274.04 L 656.80,274.04 L 657.42,274.04 L 658.03,274.04 L 658.65,274.05 L 659.26,274.05 L 659.88,274.05 L 660.50,274.05 L 661.11,274.05 L 661.73,274.05 L 662.34,274.05 L 662.96,274.05 L 663.58,274.05 L 664.19,274.06 L 664.81,274.06 L 665.42,274.06 L 666.04,274.06 L 666.66,274.06 L 667.27,274.06 L 667.89,274.06 L 668.50,274.06 L 669.12,274.07 L 669.74,274.07 L 670.35,274.07 L 670.97,274.07 L 671.58,274.07 L 672.20,274.07 L 672.82,274.07 L 673.43,274.07 L 674.05,274.08 L 674.66,274.08 L 675.28,274.08 L 675.90,274.08 L 676.51,274.08 L 677.13,274.08 L 677.74,274.08 L 678.36,274.08 L 678.98,274.09 L 679.59,274.09 L 680.21,274.09 L 680.82,274.09 L 681.44,274.09 L 682.06,274.09 L 682.67,274.09 L 683.29,274.09 L 683.90,274.10 L 684.52,274.10 L 685.14,274.10 L 685.75,274.10 L 686.37,274.10 L 686.98,274.10 L 687.60,274.10 L 687.99,274.10" fill="none" stroke="#0e63a8" stroke-width="2.2"/>

<line x1="87" y1="87" x2="112" y2="87" stroke="#0e63a8" stroke-width="2.5"/>
<text x="119" y="91" font-family="Helvetica" font-size="11" fill="black">numérico (radiación pura)</text>
</svg>
