<?xml version="1.0" encoding="UTF-8"?>
<svg xmlns="http://www.w3.org/2000/svg" width="760" height="500" viewBox="0 0 760 500">
<rect width="100%" height="100%" fill="#fcfcfc"/>
<rect x="72" y="72" width="616" height="356" fill="white" stroke="black" stroke-width="1.2"/>
<text x="380.0" y="41.0" text-anchor="middle" font-family="Helvetica" font-size="16" font-weight="bold">sim002: TOV radiación — el atractor singular isothermal</text>
<text x="380.0" y="476.0" text-anchor="middle" font-family="Helvetica" font-size="13">x = r / r_s (radial adimensional)</text>
<text x="24.0" y="250.0" text-anchor="middle" font-family="Helvetica" font-size="13" transform="rotate(-90 24.0 250.0)">y = ρ / ρ_*  (densidad adimensional)</text>
<line x1="72.0" y1="428" x2="72.0" y2="433" stroke="black" stroke-width="0.8"/>
<text x="72.0" y="446" text-anchor="middle" font-family="Helvetica" font-size="10">10^-3</text>
<line x1="277.3333333333333" y1="428" x2="277.3333333333333" y2="433" stroke="black" stroke-width="0.8"/>
<text x="277.3333333333333" y="446" text-anchor="middle" font-family="Helvetica" font-size="10">10^-2</text>
<line x1="482.66666666666663" y1="428" x2="482.66666666666663" y2="433" stroke="black" stroke-width="0.8"/>
<text x="482.66666666666663" y="446" text-anchor="middle" font-family="Helvetica" font-size="10">10^-1</text>
<line x1="688.0" y1="428" x2="688.0" y2="433" stroke="black" stroke-width="0.8"/>
<text x="688.0" y="446" text-anchor="middle" font-family="Helvetica" font-size="10">10^0</text>
<line x1="67" y1="428.0" x2="72" y2="428.0" stroke="black" stroke-width="0.8"/>
<text x="64" y="432.0" text-anchor="end" font-family="Helvetica" font-size="10">10^-1</text>
<line x1="67" y1="377.14285714285717" x2="72" y2="377.14285714285717" stroke="black" stroke-width="0.8"/>
<text x="64" y="381.14285714285717" text-anchor="end" font-family="Helvetica" font-size="10">10^0</text>
<line x1="67" y1="326.2857142857143" x2="72" y2="326.2857142857143" stroke="black" stroke-width="0.8"/>
<text x="64" y="330.2857142857143" text-anchor="end" font-family="Helvetica" font-size="10">10^1</text>
<line x1="67" y1="275.42857142857144" x2="72" y2="275.42857142857144" stroke="black" stroke-width="0.8"/>
<text x="64" y="279.42857142857144" text-anchor="end" font-family="Helvetica" font-size="10">10^2</text>
<line x1="67" y1="224.57142857142858" x2="72" y2="224.57142857142858" stroke="black" stroke-width="0.8"/>
<text x="64" y="228.57142857142858" text-anchor="end" font-family="Helvetica" font-size="10">10^3</text>
<line x1="67" y1="173.71428571428572" x2="72" y2="173.71428571428572" stroke="black" stroke-width="0.8"/>
<text x="64" y="177.71428571428572" text-anchor="end" font-family="Helvetica" font-size="10">10^4</text>
<line x1="67" y1="122.85714285714289" x2="72" y2="122.85714285714289" stroke="black" stroke-width="0.8"/>
<text x="64" y="126.85714285714289" text-anchor="end" font-family="Helvetica" font-size="10">10^5</text>
<line x1="67" y1="72.0" x2="72" y2="72.0" stroke="black" stroke-width="0.8"/>
<text x="64" y="76.0" text-anchor="end" font-family="Helvetica" font-size="10">10^6</text>
<line x1="277.3333333333333" y1="72" x2="277.3333333333333" y2="428" stroke="#eee" stroke-width="0.5"/>
<line x1="482.66666666666663" y1="72" x2="482.66666666666663" y2="428" stroke="#eee" stroke-width="0.5"/>
<line x1="72" y1="377.14285714285717" x2="688" y2="377.14285714285717" stroke="#eee" stroke-width="0.5"/>
<line x1="72" y1="326.2857142857143" x2="688" y2="326.2857142857143" stroke="#eee" stroke-width="0.5"/>
<line x1="72" y1="275.42857142857144" x2="688" y2="275.42857142857144" stroke="#eee" stroke-width="0.5"/>
<line x1="72" y1="224.57142857142858" x2="688" y2="224.57142857142858" stroke="#eee" stroke-width="0.5"/>
<line x1="72" y1="173.71428571428572" x2="688" y2="173.71428571428572" stroke="#eee" stroke-width="0.5"/>
<line x1="72" y1="122.85714285714289" x2="688" y2="122.85714285714289" stroke="#eee" stroke-width="0.5"/>


<path d="M -338.67,173.71 L -337.78,173.71 L -336.89,173.71 L -336.00,173.71 L -335.12,173.71 L -334.23,173.71 L -333.34,173.71 L -332.46,173.71 L -331.57,173.71 L -330.68,173.71 L -329.79,173.71 L -328.91,173.71 L -328.02,173.71 L -327.13,173.71 L -326.24,173.71 L -325.36,173.71 L -324.47,173.71 L -323.58,173.71 L -322.69,173.71 L -321.81,173.71 L -320.92,173.71 L -320.03,173.71 L -319.15,173.71 L -318.26,173.71 L -317.37,173.71 L -316.48,173.71 L -315.60,173.71 L -314.71,173.71 L -313.82,173.71 L -312.93,173.71 L -312.05,173.71 L -311.16,173.71 L -310.27,173.71 L -309.39,173.71 L -308.50,173.71 L -307.61,173.71 L -306.72,173.71 L -305.84,173.71 L -304.95,173.71 L -304.06,173.71 L -303.17,173.71 L -302.29,173.71 L -301.40,173.71 L -300.51,173.71 L -299.62,173.71 L -298.74,173.71 L -297.85,173.71 L -296.96,173.71 L -296.08,173.71 L -295.19,173.71 L -294.30,173.71 L -293.41,173.71 L -292.53,173.71 L -291.64,173.71 L -290.75,173.71 L -289.86,173.71 L -288.98,173.71 L -288.09,173.71 L -287.20,173.71 L -286.31,173.71 L -285.43,173.71 L -284.54,173.71 L -283.65,173.71 L -282.77,173.71 L -281.88,173.71 L -280.99,173.71 L -280.10,173.71 L -279.22,173.71 L -278.33,173.71 L -277.44,173.71 L -276.55,173.71 L -275.67,173.71 L -274.78,173.71 L -273.89,173.71 L -273.00,173.71 L -272.12,173.71 L -271.23,173.71 L -270.34,173.71 L -269.46,173.71 L -268.57,173.71 L -267.68,173.71 L -266.79,173.71 L -265.91,173.71 L -265.02,173.71 L -264.13,173.71 L -263.24,173.71 L -262.36,173.71 L -261.47,173.71 L -260.58,173.71 L -259.70,173.71 L -258.81,173.71 L -257.92,173.71 L -257.03,173.71 L -256.15,173.71 L -255.26,173.71 L -254.37,173.71 L -253.48,173.71 L -252.60,173.71 L -251.71,173.71 L -250.82,173.71 L -249.93,173.71 L -249.05,173.71 L -248.16,173.71 L -247.27,173.71 L -246.39,173.71 L -245.50,173.71 L -244.61,173.71 L -243.72,173.71 L -242.84,173.71 L -241.95,173.71 L -241.06,173.71 L -240.17,173.71 L -239.29,173.71 L -238.40,173.71 L -237.51,173.71 L -236.63,173.71 L -235.74,173.71 L -234.85,173.71 L -233.96,173.71 L -233.08,173.71 L -232.19,173.71 L -231.30,173.71 L -230.41,173.71 L -229.53,173.71 L -228.64,173.71 L -227.75,173.71 L -226.86,173.71 L -225.98,173.71 L -225.09,173.71 L -224.20,173.71 L -223.32,173.71 L -222.43,173.71 L -221.54,173.71 L -220.65,173.71 L -219.77,173.71 L -218.88,173.71 L -217.99,173.71 L -217.10,173.71 L -216.22,173.71 L -215.33,173.72 L -214.44,173.72 L -213.55,173.72 L -212.67,173.72 L -211.78,173.72 L -210.89,173.72 L -210.01,173.72 L -209.12,173.72 L -208.23,173.72 L -207.34,173.72 L -206.46,173.72 L -205.57,173.72 L -204.68,173.72 L -203.79,173.72 L -202.91,173.72 L -202.02,173.72 L -201.13,173.72 L -200.25,173.72 L -199.36,173.72 L -198.47,173.72 L -197.58,173.72 L -196.70,173.72 L -195.81,173.72 L -194.92,173.72 L -194.03,173.72 L -193.15,173.72 L -192.26,173.72 L -191.37,173.72 L -190.49,173.72 L -189.60,173.72 L -188.71,173.72 L -187.82,173.72 L -186.94,173.72 L -186.05,173.72 L -185.16,173.72 L -184.27,173.72 L -183.39,173.72 L -182.50,173.72 L -181.61,173.72 L -180.72,173.72 L -179.84,173.72 L -178.95,173.72 L -178.06,173.72 L -177.18,173.72 L -176.29,173.72 L -175.40,173.72 L -174.51,173.72 L -173.63,173.72 L -172.74,173.72 L -171.85,173.72 L -170.96,173.72 L -170.08,173.72 L -169.19,173.72 L -168.30,173.72 L -167.42,173.72 L -166.53,173.72 L -165.64,173.72 L -164.75,173.72 L -163.87,173.72 L -162.98,173.72 L -162.09,173.72 L -161.20,173.72 L -160.32,173.72 L -159.43,173.72 L -158.54,173.72 L -157.66,173.72 L -156.77,173.72 L -155.88,173.72 L -154.99,173.72 L -154.11,173.72 L -153.22,173.72 L -152.33,173.72 L -151.44,173.72 L -150.56,173.72 L -149.67,173.72 L -148.78,173.72 L -147.90,173.72 L -147.01,173.72 L -146.12,173.72 L -145.23,173.72 L -144.35,173.72 L -143.46,173.72 L -142.57,173.72 L -141.68,173.72 L -140.80,173.72 L -139.91,173.72 L -139.02,173.72 L -138.14,173.72 L -137.25,173.72 L -136.36,173.72 L -135.47,173.72 L -134.59,173.72 L -133.70,173.72 L -132.81,173.72 L -131.93,173.72 L -131.04,173.72 L -130.15,173.72 L -129.26,173.72 L -128.38,173.72 L -127.49,173.72 L -126.60,173.72 L -125.71,173.72 L -124.83,173.72 L -123.94,173.72 L -123.05,173.72 L -122.17,173.72 L -121.28,173.72 L -120.39,173.72 L -119.50,173.72 L -118.62,173.72 L -117.73,173.72 L -116.84,173.72 L -115.96,173.72 L -115.07,173.72 L -114.18,173.72 L -113.29,173.72 L -112.41,173.72 L -111.52,173.72 L -110.63,173.72 L -109.74,173.72 L -108.86,173.72 L -107.97,173.72 L -107.08,173.72 L -106.20,173.72 L -105.31,173.72 L -104.42,173.72 L -103.53,173.72 L -102.65,173.72 L -101.76,173.72 L -100.87,173.72 L -99.99,173.72 L -99.10,173.72 L -98.21,173.72 L -97.32,173.72 L -96.44,173.72 L -95.55,173.72 L -94.66,173.72 L -93.78,173.73 L -92.89,173.73 L -92.00,173.73 L -91.12,173.73 L -90.23,173.73 L -89.34,173.73 L -88.45,173.73 L -87.57,173.73 L -86.68,173.73 L -85.79,173.73 L -84.91,173.73 L -84.02,173.73 L -83.13,173.73 L -82.24,173.73 L -81.36,173.73 L -80.47,173.73 L -79.58,173.73 L -78.70,173.73 L -77.81,173.73 L -76.92,173.73 L -76.04,173.73 L -75.15,173.73 L -74.26,173.73 L -73.37,173.73 L -72.49,173.73 L -71.60,173.73 L -70.71,173.73 L -69.83,173.73 L -68.94,173.73 L -68.05,173.73 L -67.17,173.73 L -66.28,173.73 L -65.39,173.73 L -64.50,173.73 L -63.62,173.74 L -62.73,173.74 L -61.84,173.74 L -60.96,173.74 L -60.07,173.74 L -59.18,173.74 L -58.30,173.74 L -57.41,173.74 L -56.52,173.74 L -55.64,173.74 L -54.75,173.74 L -53.86,173.74 L -52.98,173.74 L -52.09,173.74 L -51.20,173.74 L -50.32,173.74 L -49.43,173.74 L -48.54,173.74 L -47.65,173.74 L -46.77,173.75 L -45.88,173.75 L -44.99,173.75 L -44.11,173.75 L -43.22,173.75 L -42.33,173.75 L -41.45,173.75 L -40.56,173.75 L -39.67,173.75 L -38.79,173.75 L -37.90,173.75 L -37.02,173.75 L -36.13,173.75 L -35.24,173.75 L -34.36,173.75 L -33.47,173.76 L -32.58,173.76 L -31.70,173.76 L -30.81,173.76 L -29.92,173.76 L -29.04,173.76 L -28.15,173.76 L -27.26,173.76 L -26.38,173.76 L -25.49,173.76 L -24.60,173.76 L -23.72,173.77 L -22.83,173.77 L -21.95,173.77 L -21.06,173.77 L -20.17,173.77 L -19.29,173.77 L -18.40,173.77 L -17.52,173.77 L -16.63,173.77 L -15.74,173.78 L -14.86,173.78 L -13.97,173.78 L -13.08,173.78 L -12.20,173.78 L -11.31,173.78 L -10.43,173.78 L -9.54,173.79 L -8.65,173.79 L -7.77,173.79 L -6.88,173.79 L -6.00,173.79 L -5.11,173.79 L -4.23,173.79 L -3.34,173.80 L -2.45,173.80 L -1.57,173.80 L -0.68,173.80 L 0.20,173.80 L 1.09,173.80 L 1.97,173.81 L 2.86,173.81 L 3.74,173.81 L 4.63,173.81 L 5.52,173.81 L 6.40,173.82 L 7.29,173.82 L 8.17,173.82 L 9.06,173.82 L 9.94,173.82 L 10.83,173.83 L 11.71,173.83 L 12.60,173.83 L 13.48,173.83 L 14.37,173.84 L 15.25,173.84 L 16.14,173.84 L 17.02,173.84 L 17.91,173.85 L 18.79,173.85 L 19.68,173.85 L 20.56,173.85 L 21.44,173.86 L 22.33,173.86 L 23.21,173.86 L 24.10,173.87 L 24.98,173.87 L 25.87,173.87 L 26.75,173.87 L 27.64,173.88 L 28.52,173.88 L 29.40,173.88 L 30.29,173.89 L 31.17,173.89 L 32.05,173.89 L 32.94,173.90 L 33.82,173.90 L 34.71,173.91 L 35.59,173.91 L 36.47,173.91 L 37.36,173.92 L 38.24,173.92 L 39.12,173.93 L 40.01,173.93 L 40.89,173.93 L 41.77,173.94 L 42.65,173.94 L 43.54,173.95 L 44.42,173.95 L 45.30,173.96 L 46.19,173.96 L 47.07,173.97 L 47.95,173.97 L 48.83,173.98 L 49.71,173.98 L 50.60,173.99 L 51.48,173.99 L 52.36,174.00 L 53.24,174.00 L 54.12,174.01 L 55.00,174.02 L 55.89,174.02 L 56.77,174.03 L 57.65,174.03 L 58.53,174.04 L 59.41,174.05 L 60.29,174.05 L 61.17,174.06 L 62.05,174.07 L 62.93,174.07 L 63.81,174.08 L 64.69,174.09 L 65.57,174.10 L 66.45,174.10 L 67.33,174.11 L 68.21,174.12 L 69.09,174.13 L 69.97,174.14 L 70.85,174.14 L 71.73,174.15 L 72.61,174.16 L 73.48,174.17 L 74.36,174.18 L 75.24,174.19 L 76.12,174.20 L 77.00,174.21 L 77.87,174.22 L 78.75,174.23 L 79.63,174.24 L 80.51,174.25 L 81.38,174.26 L 82.26,174.27 L 83.14,174.28 L 84.01,174.29 L 84.89,174.30 L 85.76,174.31 L 86.64,174.33 L 87.51,174.34 L 88.39,174.35 L 89.26,174.36 L 90.14,174.37 L 91.01,174.39 L 91.89,174.40 L 92.76,174.41 L 93.63,174.43 L 94.51,174.44 L 95.38,174.46 L 96.25,174.47 L 97.13,174.49 L 98.00,174.50 L 98.87,174.52 L 99.74,174.53 L 100.61,174.55 L 101.48,174.57 L 102.35,174.58 L 103.22,174.60 L 104.09,174.62 L 104.96,174.63 L 105.83,174.65 L 106.70,174.67 L 107.57,174.69 L 108.44,174.71 L 109.31,174.73 L 110.17,174.75 L 111.04,174.77 L 111.91,174.79 L 112.77,174.81 L 113.64,174.83 L 114.51,174.85 L 115.37,174.87 L 116.24,174.90 L 117.10,174.92 L 117.96,174.94 L 118.83,174.97 L 119.69,174.99 L 120.55,175.02 L 121.41,175.04 L 122.28,175.07 L 123.14,175.09 L 124.00,175.12 L 124.86,175.15 L 125.72,175.17 L 126.58,175.20 L 127.43,175.23 L 128.29,175.26 L 129.15,175.29 L 130.01,175.32 L 130.86,175.35 L 131.72,175.38 L 132.57,175.41 L 133.43,175.45 L 134.28,175.48 L 135.14,175.51 L 135.99,175.55 L 136.84,175.58 L 137.69,175.62 L 138.54,175.65 L 139.39,175.69 L 140.24,175.73 L 141.09,175.77 L 141.94,175.80 L 142.79,175.84 L 143.63,175.88 L 144.48,175.92 L 145.32,175.97 L 146.17,176.01 L 147.01,176.05 L 147.85,176.10 L 148.70,176.14 L 149.54,176.19 L 150.38,176.23 L 151.22,176.28 L 152.06,176.33 L 152.89,176.38 L 153.73,176.42 L 154.57,176.48 L 155.40,176.53 L 156.24,176.58 L 157.07,176.63 L 157.90,176.69 L 158.73,176.74 L 159.56,176.80 L 160.39,176.85 L 161.22,176.91 L 162.05,176.97 L 162.87,177.03 L 163.70,177.09 L 164.52,177.15 L 165.35,177.21 L 166.17,177.28 L 166.99,177.34 L 167.81,177.41 L 168.63,177.47 L 169.45,177.54 L 170.26,177.61 L 171.08,177.68 L 171.89,177.75 L 172.71,177.82 L 173.52,177.89 L 174.33,177.97 L 175.14,178.04 L 175.94,178.12 L 176.75,178.20 L 177.56,178.28 L 178.36,178.36 L 179.16,178.44 L 179.96,178.52 L 180.76,178.61 L 181.56,178.69 L 182.36,178.78 L 183.16,178.87 L 183.95,178.96 L 184.74,179.05 L 185.54,179.14 L 186.33,179.23 L 187.11,179.33 L 187.90,179.42 L 188.69,179.52 L 189.47,179.62 L 190.25,179.72 L 191.03,179.82 L 191.81,179.92 L 192.59,180.02 L 193.37,180.13 L 194.14,180.24 L 194.91,180.35 L 195.68,180.46 L 196.45,180.57 L 197.22,180.68 L 197.99,180.80 L 198.75,180.91 L 199.51,181.03 L 200.27,181.15 L 201.03,181.27 L 201.79,181.39 L 202.55,181.51 L 203.30,181.64 L 204.05,181.77 L 204.80,181.89 L 205.55,182.02 L 206.30,182.16 L 207.04,182.29 L 207.78,182.42 L 208.52,182.56 L 209.26,182.70 L 210.00,182.84 L 210.73,182.98 L 211.47,183.12 L 212.20,183.27 L 212.93,183.41 L 213.65,183.56 L 214.38,183.71 L 215.10,183.86 L 215.82,184.01 L 216.54,184.17 L 217.26,184.32 L 217.97,184.48 L 218.69,184.64 L 219.40,184.80 L 220.11,184.96 L 220.81,185.13 L 221.52,185.29 L 222.22,185.46 L 222.92,185.63 L 223.62,185.80 L 224.32,185.97 L 225.01,186.15 L 225.70,186.32 L 226.39,186.50 L 227.08,186.68 L 227.76,186.86 L 228.45,187.04 L 229.13,187.23 L 229.81,187.41 L 230.49,187.60 L 231.16,187.79 L 231.83,187.98 L 232.50,188.17 L 233.17,188.37 L 233.84,188.56 L 234.50,188.76 L 235.17,188.96 L 235.83,189.16 L 236.48,189.36 L 237.14,189.56 L 237.79,189.77 L 238.44,189.97 L 239.09,190.18 L 239.74,190.39 L 240.39,190.60 L 241.03,190.81 L 241.67,191.03 L 242.31,191.24 L 242.94,191.46 L 243.58,191.68 L 244.21,191.90 L 244.84,192.12 L 245.47,192.34 L 246.09,192.56 L 246.72,192.79 L 247.34,193.02 L 247.96,193.24 L 248.58,193.47 L 249.19,193.70 L 249.81,193.94 L 250.42,194.17 L 251.03,194.40 L 251.63,194.64 L 252.24,194.88 L 252.84,195.12 L 253.44,195.36 L 254.04,195.60 L 254.64,195.84 L 255.24,196.08 L 255.83,196.33 L 256.42,196.57 L 257.01,196.82 L 257.60,197.07 L 258.18,197.32 L 258.77,197.57 L 259.35,197.82 L 259.93,198.07 L 260.51,198.33 L 261.08,198.58 L 261.66,198.84 L 262.23,199.09 L 262.80,199.35 L 263.37,199.61 L 263.94,199.87 L 264.50,200.13 L 265.07,200.39 L 265.63,200.66 L 266.19,200.92 L 266.75,201.19 L 267.30,201.45 L 267.86,201.72 L 268.41,201.98 L 268.96,202.25 L 269.51,202.52 L 270.06,202.79 L 270.61,203.06 L 271.15,203.33 L 271.70,203.61 L 272.24,203.88 L 272.78,204.15 L 273.32,204.43 L 273.86,204.70 L 274.39,204.98 L 274.93,205.26 L 275.46,205.53 L 275.99,205.81 L 276.52,206.09 L 277.05,206.37 L 277.57,206.65 L 278.10,206.93 L 278.62,207.21 L 279.15,207.49 L 279.67,207.77 L 280.19,208.06 L 280.71,208.34 L 281.22,208.62 L 281.74,208.91 L 282.25,209.19 L 282.77,209.48 L 283.28,209.77 L 283.79,210.05 L 284.30,210.34 L 284.81,210.63 L 285.32,210.91 L 285.82,211.20 L 286.33,211.49 L 286.83,211.78 L 287.33,212.07 L 287.83,212.36 L 288.33,212.65 L 288.83,212.94 L 289.33,213.23 L 289.83,213.52 L 290.32,213.81 L 290.82,214.10 L 291.31,214.40 L 291.81,214.69 L 292.30,214.98 L 292.79,215.27 L 293.28,215.57 L 293.77,215.86 L 294.25,216.15 L 294.74,216.45 L 295.23,216.74 L 295.71,217.04 L 296.20,217.33 L 296.68,217.63 L 297.16,217.92 L 297.65,218.22 L 298.13,218.51 L 298.61,218.81 L 299.09,219.10 L 299.56,219.40 L 300.04,219.69 L 300.52,219.99 L 301.00,220.29 L 301.47,220.58 L 301.95,220.88 L 302.42,221.18 L 302.89,221.47 L 303.37,221.77 L 303.84,222.07 L 304.31,222.36 L 304.78,222.66 L 305.25,222.96 L 305.72,223.25 L 306.19,223.55 L 306.66,223.85 L 307.13,224.14 L 307.59,224.44 L 308.06,224.74 L 308.52,225.03 L 308.99,225.33 L 309.46,225.63 L 309.92,225.93 L 310.38,226.22 L 310.85,226.52 L 311.31,226.82 L 311.77,227.11 L 312.23,227.41 L 312.70,227.71 L 313.16,228.00 L 313.62,228.30 L 314.08,228.60 L 314.54,228.89 L 315.00,229.19 L 315.46,229.49 L 315.92,229.78 L 316.37,230.08 L 316.83,230.38 L 317.29,230.67 L 317.75,230.97 L 318.20,231.26 L 318.66,231.56 L 319.12,231.85 L 319.57,232.15 L 320.03,232.45 L 320.49,232.74 L 320.94,233.04 L 321.40,233.33 L 321.85,233.63 L 322.31,233.92 L 322.76,234.22 L 323.21,234.51 L 323.67,234.80 L 324.12,235.10 L 324.58,235.39 L 325.03,235.69 L 325.48,235.98 L 325.93,236.27 L 326.39,236.57 L 326.84,236.86 L 327.29,237.15 L 327.75,237.45 L 328.20,237.74 L 328.65,238.03 L 329.10,238.32 L 329.55,238.62 L 330.01,238.91 L 330.46,239.20 L 330.91,239.49 L 331.36,239.78 L 331.81,240.07 L 332.26,240.37 L 332.72,240.66 L 333.17,240.95 L 333.62,241.24 L 334.07,241.53 L 334.52,241.82 L 334.97,242.11 L 335.42,242.40 L 335.87,242.69 L 336.33,242.97 L 336.78,243.26 L 337.23,243.55 L 337.68,243.84 L 338.13,244.13 L 338.58,244.42 L 339.03,244.70 L 339.49,244.99 L 339.94,245.28 L 340.39,245.57 L 340.84,245.85 L 341.29,246.14 L 341.74,246.43 L 342.20,246.71 L 342.65,247.00 L 343.10,247.28 L 343.55,247.57 L 344.00,247.85 L 344.46,248.14 L 344.91,248.42 L 345.36,248.71 L 345.82,248.99 L 346.27,249.28 L 346.72,249.56 L 347.17,249.84 L 347.63,250.13 L 348.08,250.41 L 348.53,250.69 L 348.99,250.97 L 349.44,251.26 L 349.90,251.54 L 350.35,251.82 L 350.81,252.10 L 351.26,252.38 L 351.71,252.66 L 352.17,252.94 L 352.63,253.22 L 353.08,253.50 L 353.54,253.78 L 353.99,254.06 L 354.45,254.34 L 354.90,254.62 L 355.36,254.90 L 355.82,255.18 L 356.27,255.46 L 356.73,255.73 L 357.19,256.01 L 357.65,256.29 L 358.10,256.57 L 358.56,256.84 L 359.02,257.12 L 359.48,257.39 L 359.94,257.67 L 360.40,257.95 L 360.86,258.22 L 361.32,258.50 L 361.78,258.77 L 362.24,259.05 L 362.70,259.32 L 363.16,259.60 L 363.62,259.87 L 364.08,260.14 L 364.54,260.42 L 365.00,260.69 L 365.47,260.96 L 365.93,261.23 L 366.39,261.51 L 366.85,261.78 L 367.32,262.05 L 367.78,262.32 L 368.24,262.59 L 368.71,262.86 L 369.17,263.14 L 369.64,263.41 L 370.10,263.68 L 370.57,263.95 L 371.03,264.22 L 371.50,264.48 L 371.97,264.75 L 372.43,265.02 L 372.90,265.29 L 373.37,265.56 L 373.84,265.83 L 374.30,266.10 L 374.77,266.36 L 375.24,266.63 L 375.71,266.90 L 376.18,267.16 L 376.65,267.43 L 377.12,267.70 L 377.59,267.96 L 378.06,268.23 L 378.53,268.49 L 379.00,268.76 L 379.47,269.02 L 379.94,269.29 L 380.42,269.55 L 380.89,269.82 L 381.36,270.08 L 381.84,270.34 L 382.31,270.61 L 382.78,270.87 L 383.26,271.13 L 383.73,271.40 L 384.21,271.66 L 384.68,271.92 L 385.16,272.18 L 385.64,272.45 L 386.11,272.71 L 386.59,272.97 L 387.07,273.23 L 387.54,273.49 L 388.02,273.75 L 388.50,274.01 L 388.98,274.27 L 389.46,274.53 L 389.94,274.79 L 390.42,275.05 L 390.90,275.31 L 391.38,275.57 L 391.86,275.83 L 392.34,276.09 L 392.82,276.34 L 393.30,276.60 L 393.79,276.86 L 394.27,277.12 L 394.75,277.37 L 395.23,277.63 L 395.72,277.89 L 396.20,278.14 L 396.69,278.40 L 397.17,278.66 L 397.66,278.91 L 398.14,279.17 L 398.63,279.42 L 399.11,279.68 L 399.60,279.93 L 400.09,280.19 L 400.57,280.44 L 401.06,280.70 L 401.55,280.95 L 402.04,281.21 L 402.53,281.46 L 403.02,281.72 L 403.51,281.97 L 403.99,282.22 L 404.48,282.47 L 404.98,282.73 L 405.47,282.98 L 405.96,283.23 L 406.45,283.49 L 406.94,283.74 L 407.43,283.99 L 407.92,284.24 L 408.42,284.49 L 408.91,284.74 L 409.40,285.00 L 409.90,285.25 L 410.39,285.50 L 410.89,285.75 L 411.38,286.00 L 411.88,286.25 L 412.37,286.50 L 412.87,286.75 L 413.36,287.00 L 413.86,287.25 L 414.36,287.50 L 414.85,287.75 L 415.35,288.00 L 415.85,288.24 L 416.35,288.49 L 416.84,288.74 L 417.34,288.99 L 417.84,289.24 L 418.34,289.49 L 418.84,289.73 L 419.34,289.98 L 419.84,290.23 L 420.34,290.48 L 420.84,290.72 L 421.34,290.97 L 421.85,291.22 L 422.35,291.47 L 422.85,291.71 L 423.35,291.96 L 423.85,292.21 L 424.36,292.45 L 424.86,292.70 L 425.36,292.94 L 425.87,293.19 L 426.37,293.44 L 426.88,293.68 L 427.38,293.93 L 427.89,294.17 L 428.39,294.42 L 428.90,294.66 L 429.40,294.91 L 429.91,295.15 L 430.42,295.40 L 430.92,295.64 L 431.43,295.89 L 431.94,296.13 L 432.44,296.37 L 432.95,296.62 L 433.46,296.86 L 433.97,297.11 L 434.48,297.35 L 434.99,297.59 L 435.49,297.84 L 436.00,298.08 L 436.51,298.32 L 437.02,298.57 L 437.53,298.81 L 438.04,299.05 L 438.55,299.30 L 439.06,299.54 L 439.58,299.78 L 440.09,300.03 L 440.60,300.27 L 441.11,300.51 L 441.62,300.75 L 442.13,301.00 L 442.65,301.24 L 443.16,301.48 L 443.67,301.72 L 444.18,301.97 L 444.70,302.21 L 445.21,302.45 L 445.73,302.69 L 446.24,302.93 L 446.75,303.17 L 447.27,303.42 L 447.78,303.66 L 448.30,303.90 L 448.81,304.14 L 449.33,304.38 L 449.84,304.62 L 450.36,304.87 L 450.87,305.11 L 451.39,305.35 L 451.90,305.59 L 452.42,305.83 L 452.94,306.07 L 453.45,306.31 L 453.97,306.55 L 454.49,306.79 L 455.00,307.03 L 455.52,307.28 L 456.04,307.52 L 456.56,307.76 L 457.07,308.00 L 457.59,308.24 L 458.11,308.48 L 458.63,308.72 L 459.15,308.96 L 459.67,309.20 L 460.18,309.44 L 460.70,309.68 L 461.22,309.92 L 461.74,310.16 L 462.26,310.40 L 462.78,310.64 L 463.30,310.88 L 463.82,311.12 L 464.34,311.36 L 464.86,311.60 L 465.38,311.84 L 465.90,312.08 L 466.42,312.32 L 466.94,312.56 L 467.46,312.80 L 467.98,313.04 L 468.50,313.29 L 469.02,313.53 L 469.54,313.77 L 470.06,314.01 L 470.59,314.25 L 471.11,314.49 L 471.63,314.73 L 472.15,314.97 L 472.67,315.21 L 473.19,315.45 L 473.71,315.69 L 474.24,315.93 L 474.76,316.17 L 475.28,316.41 L 475.80,316.65 L 476.32,316.89 L 476.85,317.13 L 477.37,317.37 L 477.89,317.61 L 478.41,317.85 L 478.94,318.09 L 479.46,318.33 L 479.98,318.57 L 480.50,318.81 L 481.03,319.05 L 481.55,319.29 L 482.07,319.53 L 482.60,319.77 L 483.12,320.01 L 483.64,320.25 L 484.16,320.49 L 484.69,320.73 L 485.21,320.97 L 485.73,321.21 L 486.26,321.46 L 486.78,321.70 L 487.30,321.94 L 487.83,322.18 L 488.35,322.42 L 488.87,322.66 L 489.40,322.90 L 489.92,323.14 L 490.44,323.38 L 490.97,323.62 L 491.49,323.86 L 492.01,324.10 L 492.54,324.35 L 493.06,324.59 L 493.59,324.83 L 494.11,325.07 L 494.63,325.31 L 495.16,325.55 L 495.68,325.79 L 496.20,326.03 L 496.73,326.28 L 497.25,326.52 L 497.77,326.76 L 498.30,327.00 L 498.82,327.24 L 499.34,327.48 L 499.87,327.73 L 500.39,327.97 L 500.92,328.21 L 501.44,328.45 L 501.96,328.69 L 502.49,328.94 L 503.01,329.18 L 503.53,329.42 L 504.06,329.66 L 504.58,329.90 L 505.10,330.15 L 505.63,330.39 L 506.15,330.63 L 506.67,330.87 L 507.20,331.12 L 507.72,331.36 L 508.24,331.60 L 508.77,331.84 L 509.29,332.09 L 509.81,332.33 L 510.34,332.57 L 510.86,332.82 L 511.38,333.06 L 511.90,333.30 L 512.43,333.55 L 512.95,333.79 L 513.47,334.03 L 514.00,334.28 L 514.52,334.52 L 515.04,334.76 L 515.56,335.01 L 516.09,335.25 L 516.61,335.49 L 517.13,335.74 L 517.65,335.98 L 518.18,336.23 L 518.70,336.47 L 519.22,336.71 L 519.74,336.96 L 520.26,337.20 L 520.79,337.45 L 521.31,337.69 L 521.83,337.94 L 522.35,338.18 L 522.87,338.42 L 523.40,338.67 L 523.92,338.91 L 524.44,339.16 L 524.96,339.40 L 525.48,339.65 L 526.00,339.89 L 526.52,340.14 L 527.05,340.38 L 527.57,340.63 L 528.09,340.88 L 528.61,341.12 L 529.13,341.37 L 529.65,341.61 L 530.17,341.86 L 530.69,342.10 L 531.21,342.35 L 531.73,342.59 L 532.24,342.83 L 532.75,343.08 L 533.26,343.32 L 533.76,343.55 L 534.26,343.79 L 534.76,344.03 L 535.26,344.26 L 535.75,344.50 L 536.24,344.73 L 536.73,344.96 L 537.21,345.19 L 537.69,345.42 L 538.17,345.65 L 538.65,345.88 L 539.13,346.10 L 539.60,346.33 L 540.07,346.55 L 540.54,346.77 L 541.00,346.99 L 541.46,347.21 L 541.92,347.43 L 542.38,347.65 L 542.84,347.87 L 543.29,348.09 L 543.74,348.30 L 544.19,348.52 L 544.63,348.73 L 545.08,348.94 L 545.52,349.15 L 545.96,349.36 L 546.40,349.57 L 546.83,349.78 L 547.27,349.99 L 547.70,350.20 L 548.13,350.40 L 548.55,350.61 L 548.98,350.81 L 549.40,351.01 L 549.82,351.22 L 550.24,351.42 L 550.66,351.62 L 551.07,351.82 L 551.49,352.02 L 551.90,352.21 L 552.31,352.41 L 552.71,352.61 L 553.12,352.80 L 553.52,353.00 L 553.93,353.19 L 554.33,353.39 L 554.72,353.58 L 555.12,353.77 L 555.52,353.96 L 555.91,354.15 L 556.30,354.34 L 556.69,354.53 L 557.08,354.71 L 557.46,354.90 L 557.85,355.09 L 558.23,355.27 L 558.61,355.46 L 558.99,355.64 L 559.37,355.83 L 559.75,356.01 L 560.12,356.19 L 560.49,356.37 L 560.87,356.55 L 561.24,356.73 L 561.61,356.91 L 561.97,357.09 L 562.34,357.27 L 562.70,357.44 L 563.07,357.62 L 563.43,357.80 L 563.79,357.97 L 564.14,358.14 L 564.50,358.32 L 564.86,358.49 L 565.21,358.66 L 565.56,358.84 L 565.92,359.01 L 566.27,359.18 L 566.61,359.35 L 566.96,359.52 L 567.31,359.69 L 567.65,359.85 L 567.99,360.02 L 568.34,360.19 L 568.68,360.35 L 569.02,360.52 L 569.35,360.69 L 569.69,360.85 L 570.03,361.01 L 570.36,361.18 L 570.69,361.34 L 571.03,361.50 L 571.36,361.67 L 571.68,361.83 L 572.01,361.99 L 572.34,362.15 L 572.67,362.31 L 572.99,362.47 L 573.31,362.62 L 573.64,362.78 L 573.96,362.94 L 574.28,363.10 L 574.59,363.25 L 574.91,363.41 L 575.23,363.56 L 575.54,363.72 L 575.86,363.87 L 576.17,364.03 L 576.48,364.18 L 576.79,364.33 L 577.10,364.49 L 577.41,364.64 L 577.72,364.79 L 578.03,364.94 L 578.33,365.09 L 578.64,365.24 L 578.94,365.39 L 579.24,365.54 L 579.54,365.69 L 579.84,365.84 L 580.14,365.98 L 580.44,366.13 L 580.74,366.28 L 581.04,366.42 L 581.33,366.57 L 581.63,366.71 L 581.92,366.86 L 582.21,367.00 L 582.50,367.15 L 582.79,367.29 L 583.08,367.43 L 583.37,367.58 L 583.66,367.72 L 583.95,367.86 L 584.23,368.00 L 584.52,368.14 L 584.80,368.28 L 585.09,368.42 L 585.37,368.56 L 585.65,368.70 L 585.93,368.84 L 586.21,368.98 L 586.49,369.12 L 586.77,369.26 L 587.04,369.39 L 587.32,369.53 L 587.59,369.67 L 587.87,369.80 L 588.14,369.94 L 588.42,370.07 L 588.69,370.21 L 588.96,370.34 L 589.23,370.48 L 589.50,370.61 L 589.77,370.74 L 590.04,370.88 L 590.30,371.01 L 590.57,371.14 L 590.83,371.27 L 591.10,371.40 L 591.36,371.54 L 591.63,371.67 L 591.89,371.80 L 592.15,371.93 L 592.41,372.06 L 592.67,372.19 L 592.93,372.31 L 593.19,372.44 L 593.45,372.57 L 593.70,372.70 L 593.96,372.83 L 594.22,372.95 L 594.47,373.08 L 594.73,373.21 L 594.98,373.33 L 595.23,373.46 L 595.48,373.58 L 595.73,373.71 L 595.99,373.83 L 596.24,373.96 L 596.48,374.08 L 596.73,374.21 L 596.98,374.33 L 597.23,374.45 L 597.47,374.58 L 597.72,374.70 L 597.97,374.82 L 598.21,374.94 L 598.45,375.06 L 598.70,375.19 L 598.94,375.31 L 599.18,375.43 L 599.42,375.55 L 599.66,375.67 L 599.90,375.79 L 600.14,375.91 L 600.38,376.03 L 600.62,376.14 L 600.85,376.26 L 601.09,376.38 L 601.33,376.50 L 601.56,376.62 L 601.80,376.73 L 602.03,376.85 L 602.27,376.97 L 602.50,377.08 L 602.73,377.20 L 602.96,377.32 L 603.19,377.43 L 603.42,377.55 L 603.65,377.66 L 603.88,377.78 L 604.11,377.89 L 604.34,378.00 L 604.57,378.12 L 604.79,378.23 L 605.02,378.34 L 605.25,378.46 L 605.47,378.57 L 605.70,378.68 L 605.92,378.79 L 606.14,378.91 L 606.37,379.02 L 606.59,379.13 L 606.81,379.24 L 607.03,379.35 L 607.25,379.46 L 607.47,379.57 L 607.69,379.68 L 607.91,379.79 L 608.13,379.90 L 608.35,380.01 L 608.57,380.12 L 608.78,380.23 L 609.00,380.34 L 609.22,380.45 L 609.43,380.55 L 609.65,380.66 L 609.86,380.77 L 610.08,380.88 L 610.29,380.98 L 610.50,381.09 L 610.71,381.20 L 610.93,381.30 L 611.14,381.41 L 611.35,381.51 L 611.56,381.62 L 611.77,381.72 L 611.98,381.83 L 612.19,381.93 L 612.40,382.04 L 612.60,382.14 L 612.81,382.25 L 613.02,382.35 L 613.22,382.46 L 613.43,382.56 L 613.64,382.66 L 613.84,382.76 L 614.05,382.87 L 614.25,382.97 L 614.45,383.07 L 614.66,383.17 L 614.86,383.28 L 615.06,383.38 L 615.26,383.48 L 615.47,383.58 L 615.67,383.68 L 615.87,383.78 L 616.07,383.88 L 616.27,383.98 L 616.47,384.08 L 616.66,384.18 L 616.86,384.28 L 617.06,384.38 L 617.26,384.48 L 617.45,384.58 L 617.65,384.68 L 617.85,384.78 L 618.04,384.87 L 618.24,384.97 L 618.43,385.07 L 618.63,385.17 L 618.82,385.27 L 619.01,385.36 L 619.21,385.46 L 619.40,385.56 L 619.59,385.65 L 619.78,385.75 L 619.98,385.85 L 620.17,385.94 L 620.36,386.04 L 620.55,386.13 L 620.74,386.23 L 620.93,386.32 L 621.12,386.42 L 621.30,386.51 L 621.49,386.61 L 621.68,386.70 L 621.87,386.80 L 622.05,386.89 L 622.24,386.99 L 622.43,387.08 L 622.61,387.17 L 622.80,387.27 L 622.98,387.36 L 623.17,387.45 L 623.35,387.55 L 623.54,387.64 L 623.72,387.73 L 623.90,387.82 L 624.09,387.91 L 624.27,388.01 L 624.45,388.10 L 624.63,388.19 L 624.81,388.28 L 624.99,388.37 L 625.18,388.46 L 625.36,388.55 L 625.54,388.64 L 625.71,388.73 L 625.89,388.82 L 626.07,388.91 L 626.25,389.00 L 626.43,389.09 L 626.61,389.18 L 626.78,389.27 L 626.96,389.36 L 627.14,389.45 L 627.31,389.54 L 627.49,389.63 L 627.67,389.72 L 627.84,389.80 L 628.02,389.89 L 628.19,389.98 L 628.36,390.07 L 628.54,390.16 L 628.71,390.24 L 628.89,390.33 L 629.06,390.42 L 629.23,390.51 L 629.40,390.59 L 629.57,390.68 L 629.75,390.76 L 629.92,390.85 L 630.09,390.94 L 630.26,391.02 L 630.43,391.11 L 630.60,391.19 L 630.77,391.28 L 630.94,391.37 L 631.11,391.45 L 631.28,391.54 L 631.44,391.62 L 631.61,391.70 L 631.78,391.79 L 631.95,391.87 L 632.11,391.96 L 632.28,392.04 L 632.45,392.13 L 632.61,392.21 L 632.78,392.29 L 632.94,392.38 L 633.11,392.46 L 633.27,392.54 L 633.44,392.63 L 633.60,392.71 L 633.77,392.79 L 633.93,392.87 L 634.09,392.96 L 634.26,393.04 L 634.42,393.12 L 634.58,393.20 L 634.74,393.28 L 634.91,393.37 L 635.07,393.45 L 635.23,393.53 L 635.39,393.61 L 635.55,393.69 L 635.71,393.77 L 635.87,393.85 L 636.03,393.93 L 636.19,394.01 L 636.35,394.09 L 636.51,394.17 L 636.67,394.25 L 636.83,394.33 L 636.98,394.41 L 637.14,394.49 L 637.30,394.57 L 637.46,394.65 L 637.61,394.73 L 637.77,394.81 L 637.93,394.89 L 638.08,394.97 L 638.24,395.05 L 638.40,395.13 L 638.55,395.20 L 638.71,395.28 L 638.86,395.36 L 639.02,395.44 L 639.17,395.52 L 639.32,395.59 L 639.48,395.67 L 639.63,395.75 L 639.78,395.83 L 639.94,395.90 L 640.09,395.98 L 640.24,396.06 L 640.39,396.13 L 640.55,396.21 L 640.70,396.29 L 640.85,396.36 L 641.00,396.44 L 641.15,396.52 L 641.30,396.59 L 641.45,396.67 L 641.60,396.74 L 641.75,396.82 L 641.90,396.89 L 642.05,396.97 L 642.20,397.05 L 642.35,397.12 L 642.50,397.20 L 642.65,397.27 L 642.80,397.35 L 642.94,397.42 L 643.09,397.49 L 643.24,397.57 L 643.39,397.64 L 643.53,397.72 L 643.68,397.79 L 643.83,397.87 L 643.97,397.94 L 644.12,398.01 L 644.26,398.09 L 644.41,398.16 L 644.55,398.23 L 644.70,398.31 L 644.84,398.38 L 644.99,398.45 L 645.13,398.52 L 645.28,398.60 L 645.42,398.67 L 645.57,398.74 L 645.71,398.81 L 645.85,398.89 L 645.99,398.96 L 646.14,399.03 L 646.28,399.10 L 646.42,399.17 L 646.56,399.25 L 646.71,399.32 L 646.85,399.39 L 646.99,399.46 L 647.13,399.53 L 647.27,399.60 L 647.41,399.67 L 647.55,399.75 L 647.69,399.82 L 647.83,399.89 L 647.97,399.96 L 648.11,400.03 L 648.25,400.10 L 648.39,400.17 L 648.53,400.24 L 648.67,400.31 L 648.81,400.38 L 648.94,400.45 L 649.08,400.52 L 649.22,400.59 L 649.36,400.66 L 649.50,400.73 L 649.63,400.79 L 649.77,400.86 L 649.91,400.93 L 650.04,401.00 L 650.18,401.07 L 650.32,401.14 L 650.45,401.21 L 650.59,401.28 L 650.72,401.35 L 650.86,401.41 L 650.99,401.48 L 651.13,401.55 L 651.26,401.62 L 651.40,401.69 L 651.53,401.75 L 651.67,401.82 L 651.80,401.89 L 651.93,401.96 L 652.07,402.02 L 652.20,402.09 L 652.33,402.16 L 652.47,402.22 L 652.60,402.29 L 652.73,402.36 L 652.86,402.43 L 653.00,402.49 L 653.13,402.56 L 653.26,402.63 L 653.39,402.69 L 653.52,402.76 L 653.65,402.82 L 653.79,402.89 L 653.92,402.96 L 654.05,403.02 L 654.18,403.09 L 654.31,403.15 L 654.44,403.22 L 654.57,403.28 L 654.70,403.35 L 654.83,403.41 L 654.96,403.48 L 655.08,403.55 L 655.21,403.61 L 655.34,403.68 L 655.47,403.74 L 655.60,403.80 L 655.73,403.87 L 655.86,403.93 L 655.98,404.00 L 656.11,404.06 L 656.24,404.13 L 656.37,404.19 L 656.49,404.26 L 656.62,404.32 L 656.75,404.38 L 656.87,404.45 L 657.00,404.51 L 657.12,404.57 L 657.25,404.64 L 657.38,404.70 L 657.50,404.76 L 657.63,404.83 L 657.75,404.89 L 657.88,404.95 L 658.00,405.02 L 658.13,405.08 L 658.25,405.14 L 658.38,405.21 L 658.50,405.27 L 658.63,405.33 L 658.75,405.39 L 658.87,405.46 L 659.00,405.52 L 659.12,405.58 L 659.24,405.64 L 659.37,405.70 L 659.49,405.77 L 659.61,405.83 L 659.73,405.89 L 659.86,405.95 L 659.98,406.01 L 660.10,406.07 L 660.22,406.14 L 660.34,406.20 L 660.47,406.26 L 660.59,406.32 L 660.71,406.38 L 660.83,406.44 L 660.95,406.50 L 661.07,406.56 L 661.19,406.62 L 661.31,406.69 L 661.43,406.75 L 661.55,406.81 L 661.67,406.87 L 661.79,406.93 L 661.91,406.99 L 662.03,407.05 L 662.15,407.11 L 662.27,407.17 L 662.39,407.23 L 662.51,407.29 L 662.62,407.35 L 662.74,407.41 L 662.86,407.47 L 662.98,407.53 L 663.10,407.59 L 663.22,407.65 L 663.33,407.70 L 663.45,407.76 L 663.57,407.82 L 663.69,407.88 L 663.80,407.94 L 663.92,408.00 L 664.04,408.06 L 664.15,408.12 L 664.27,408.18 L 664.39,408.23 L 664.50,408.29 L 664.62,408.35 L 664.73,408.41 L 664.85,408.47 L 664.96,408.53 L 665.08,408.58 L 665.20,408.64 L 665.31,408.70 L 665.43,408.76 L 665.54,408.82 L 665.65,408.87 L 665.77,408.93 L 665.88,408.99 L 666.00,409.05 L 666.11,409.10 L 666.23,409.16 L 666.34,409.22 L 666.45,409.28 L 666.57,409.33 L 666.68,409.39 L 666.79,409.45 L 666.91,409.50 L 667.02,409.56 L 667.13,409.62 L 667.24,409.68 L 667.36,409.73 L 667.47,409.79 L 667.58,409.85 L 667.69,409.90 L 667.81,409.96 L 667.92,410.01 L 668.03,410.07 L 668.14,410.13 L 668.25,410.18 L 668.36,410.24 L 668.47,410.29 L 668.58,410.35 L 668.70,410.41 L 668.81,410.46 L 668.92,410.52 L 669.03,410.57 L 669.14,410.63 L 669.25,410.68 L 669.36,410.74 L 669.47,410.80 L 669.58,410.85 L 669.69,410.91 L 669.80,410.96 L 669.91,411.02 L 670.01,411.07 L 670.12,411.13 L 670.23,411.18 L 670.34,411.24 L 670.45,411.29 L 670.56,411.34 L 670.67,411.40 L 670.77,411.45 L 670.88,411.51 L 670.99,411.56 L 671.10,411.62 L 671.21,411.67 L 671.31,411.73 L 671.42,411.78 L 671.53,411.83 L 671.64,411.89 L 671.74,411.94 L 671.85,412.00 L 671.96,412.05 L 672.06,412.10 L 672.17,412.16 L 672.28,412.21 L 672.38,412.26 L 672.49,412.32 L 672.60,412.37 L 672.70,412.42 L 672.81,412.48 L 672.91,412.53 L 673.02,412.58 L 673.12,412.64 L 673.23,412.69 L 673.33,412.74 L 673.44,412.79 L 673.54,412.85 L 673.65,412.90 L 673.75,412.95 L 673.86,413.01 L 673.96,413.06 L 674.07,413.11 L 674.17,413.16 L 674.28,413.22 L 674.38,413.27 L 674.48,413.32 L 674.59,413.37 L 674.69,413.42 L 674.79,413.48 L 674.90,413.53 L 675.00,413.58 L 675.10,413.63 L 675.21,413.68 L 675.31,413.74 L 675.41,413.79 L 675.51,413.84 L 675.62,413.89 L 675.72,413.94 L 675.82,413.99 L 675.92,414.05 L 676.03,414.10 L 676.13,414.15 L 676.23,414.20 L 676.33,414.25 L 676.43,414.30 L 676.53,414.35 L 676.64,414.40 L 676.74,414.45 L 676.84,414.51 L 676.94,414.56 L 677.04,414.61 L 677.14,414.66 L 677.24,414.71 L 677.34,414.76 L 677.44,414.81 L 677.54,414.86 L 677.64,414.91 L 677.74,414.96 L 677.84,415.01 L 677.94,415.06 L 678.04,415.11 L 678.14,415.16 L 678.24,415.21 L 678.34,415.26 L 678.44,415.31 L 678.54,415.36 L 678.64,415.41 L 678.74,415.46 L 678.84,415.51 L 678.94,415.56 L 679.03,415.61 L 679.13,415.66 L 679.23,415.71 L 679.33,415.76 L 679.43,415.81 L 679.53,415.86 L 679.62,415.91 L 679.72,415.96 L 679.82,416.00 L 679.92,416.05 L 680.02,416.10 L 680.11,416.15 L 680.21,416.20 L 680.31,416.25 L 680.40,416.30 L 680.50,416.35 L 680.60,416.40 L 680.70,416.44 L 680.79,416.49 L 680.89,416.54 L 680.99,416.59 L 681.08,416.64 L 681.18,416.69 L 681.27,416.74 L 681.37,416.78 L 681.47,416.83 L 681.56,416.88 L 681.66,416.93 L 681.75,416.98 L 681.85,417.02 L 681.94,417.07 L 682.04,417.12 L 682.14,417.17 L 682.23,417.22 L 682.33,417.26 L 682.42,417.31 L 682.52,417.36 L 682.61,417.41 L 682.70,417.45 L 682.80,417.50 L 682.89,417.55 L 682.99,417.60 L 683.08,417.64 L 683.18,417.69 L 683.27,417.74 L 683.36,417.79 L 683.46,417.83 L 683.55,417.88 L 683.65,417.93 L 683.74,417.97 L 683.83,418.02 L 683.93,418.07 L 684.02,418.12 L 684.11,418.16 L 684.21,418.21 L 684.30,418.26 L 684.39,418.30 L 684.49,418.35 L 684.58,418.40 L 684.67,418.44 L 684.76,418.49 L 684.86,418.53 L 684.95,418.58 L 685.04,418.63 L 685.13,418.67 L 685.22,418.72 L 685.32,418.77 L 685.41,418.81 L 685.50,418.86 L 685.59,418.90 L 685.68,418.95 L 685.77,419.00 L 685.87,419.04 L 685.96,419.09 L 686.05,419.13 L 686.14,419.18 L 686.23,419.23 L 686.32,419.27 L 686.41,419.32 L 686.50,419.36 L 686.59,419.41 L 686.68,419.45 L 686.77,419.50 L 686.86,419.54 L 686.96,419.59 L 687.05,419.63 L 687.14,419.68 L 687.23,419.72 L 687.32,419.77 L 687.41,419.82 L 687.49,419.86 L 687.58,419.91 L 687.67,419.95 L 687.76,419.99 L 687.85,420.04 L 687.94,420.08 L 688.00,420.11" fill="none" stroke="#0e63a8" stroke-width="2.2"/>
<path d="M 72.00,114.98 L 76.11,117.01 L 80.21,119.05 L 84.32,121.08 L 88.43,123.12 L 92.53,125.15 L 96.64,127.18 L 100.75,129.22 L 104.85,131.25 L 108.96,133.29 L 113.07,135.32 L 117.17,137.36 L 121.28,139.39 L 125.39,141.42 L 129.49,143.46 L 133.60,145.49 L 137.71,147.53 L 141.81,149.56 L 145.92,151.60 L 150.03,153.63 L 154.13,155.66 L 158.24,157.70 L 162.35,159.73 L 166.45,161.77 L 170.56,163.80 L 174.67,165.84 L 178.77,167.87 L 182.88,169.90 L 186.99,171.94 L 191.09,173.97 L 195.20,176.01 L 199.31,178.04 L 203.41,180.08 L 207.52,182.11 L 211.63,184.14 L 215.73,186.18 L 219.84,188.21 L 223.95,190.25 L 228.05,192.28 L 232.16,194.32 L 236.27,196.35 L 240.37,198.38 L 244.48,200.42 L 248.59,202.45 L 252.69,204.49 L 256.80,206.52 L 260.91,208.56 L 265.01,210.59 L 269.12,212.62 L 273.23,214.66 L 277.33,216.69 L 281.44,218.73 L 285.55,220.76 L 289.65,222.80 L 293.76,224.83 L 297.87,226.86 L 301.97,228.90 L 306.08,230.93 L 310.19,232.97 L 314.29,235.00 L 318.40,237.04 L 322.51,239.07 L 326.61,241.10 L 330.72,243.14 L 334.83,245.17 L 338.93,247.21 L 343.04,249.24 L 347.15,251.28 L 351.25,253.31 L 355.36,255.34 L 359.47,257.38 L 363.57,259.41 L 367.68,261.45 L 371.79,263.48 L 375.89,265.52 L 380.00,267.55 L 384.11,269.58 L 388.21,271.62 L 392.32,273.65 L 396.43,275.69 L 400.53,277.72 L 404.64,279.76 L 408.75,281.79 L 412.85,283.82 L 416.96,285.86 L 421.07,287.89 L 425.17,289.93 L 429.28,291.96 L 433.39,294.00 L 437.49,296.03 L 441.60,298.06 L 445.71,300.10 L 449.81,302.13 L 453.92,304.17 L 458.03,306.20 L 462.13,308.24 L 466.24,310.27 L 470.35,312.30 L 474.45,314.34 L 478.56,316.37 L 482.67,318.41 L 486.77,320.44 L 490.88,322.48 L 494.99,324.51 L 499.09,326.54 L 503.20,328.58 L 507.31,330.61 L 511.41,332.65 L 515.52,334.68 L 519.63,336.72 L 523.73,338.75 L 527.84,340.78 L 531.95,342.82 L 536.05,344.85 L 540.16,346.89 L 544.27,348.92 L 548.37,350.96 L 552.48,352.99 L 556.59,355.02 L 560.69,357.06 L 564.80,359.09 L 568.91,361.13 L 573.01,363.16 L 577.12,365.20 L 581.23,367.23 L 585.33,369.26 L 589.44,371.30 L 593.55,373.33 L 597.65,375.37 L 601.76,377.40 L 605.87,379.44 L 609.97,381.47 L 614.08,383.50 L 618.19,385.54 L 622.29,387.57 L 626.40,389.61 L 630.51,391.64 L 634.61,393.68 L 638.72,395.71 L 642.83,397.74 L 646.93,399.78 L 651.04,401.81 L 655.15,403.85 L 659.25,405.88 L 663.36,407.92 L 667.47,409.95 L 671.57,411.98 L 675.68,414.02 L 679.79,416.05 L 683.89,418.09 L 688.00,420.12" fill="none" stroke="#c2272d" stroke-width="2.0" stroke-dasharray="6,4"/>

<line x1="87" y1="87" x2="112" y2="87" stroke="#0e63a8" stroke-width="2.5"/>
<text x="119" y="91" font-family="Helvetica" font-size="11" fill="black">numérico  (y_c ≈ 10⁴)</text>
<line x1="87" y1="105" x2="112" y2="105" stroke="#c2272d" stroke-width="2.5"/>
<text x="119" y="109" font-family="Helvetica" font-size="11" fill="black">solución analítica  y = 1/(7x²)</text>
</svg>
