<?xml version="1.0" encoding="UTF-8"?>
<svg xmlns="http://www.w3.org/2000/svg" width="820" height="520" viewBox="0 0 820 520">
<rect width="100%" height="100%" fill="#fcfcfc"/>
<rect x="80" y="80" width="660" height="360" fill="white" stroke="black" stroke-width="1.2"/>
<text x="410.0" y="45.0" text-anchor="middle" font-family="Helvetica" font-size="16" font-weight="bold">sim004: separación d_LR requerida para reproducir jerarquía Yukawa</text>
<text x="410.0" y="493.3333333333333" text-anchor="middle" font-family="Helvetica" font-size="13">d_LR / ℓ_s   (separación geométrica L-R requerida)</text>
<text x="26.666666666666668" y="260.0" text-anchor="middle" font-family="Helvetica" font-size="13" transform="rotate(-90 26.666666666666668 260.0)">y / y_t   (Yukawa relativo, SM observado)</text>
<line x1="80.0" y1="440" x2="80.0" y2="445" stroke="black" stroke-width="0.8"/>
<text x="80.0" y="458" text-anchor="middle" font-family="Helvetica" font-size="10">0.0e+00</text>
<line x1="212.0" y1="440" x2="212.0" y2="445" stroke="black" stroke-width="0.8"/>
<text x="212.0" y="458" text-anchor="middle" font-family="Helvetica" font-size="10">4.4</text>
<line x1="344.0" y1="440" x2="344.0" y2="445" stroke="black" stroke-width="0.8"/>
<text x="344.0" y="458" text-anchor="middle" font-family="Helvetica" font-size="10">8.8</text>
<line x1="476.0" y1="440" x2="476.0" y2="445" stroke="black" stroke-width="0.8"/>
<text x="476.0" y="458" text-anchor="middle" font-family="Helvetica" font-size="10">13.2</text>
<line x1="608.0" y1="440" x2="608.0" y2="445" stroke="black" stroke-width="0.8"/>
<text x="608.0" y="458" text-anchor="middle" font-family="Helvetica" font-size="10">17.6</text>
<line x1="740.0" y1="440" x2="740.0" y2="445" stroke="black" stroke-width="0.8"/>
<text x="740.0" y="458" text-anchor="middle" font-family="Helvetica" font-size="10">22</text>
<line x1="75" y1="440.0" x2="80" y2="440.0" stroke="black" stroke-width="0.8"/>
<text x="72" y="444.0" text-anchor="end" font-family="Helvetica" font-size="10">10^-6</text>
<line x1="75" y1="382.8664836942957" x2="80" y2="382.8664836942957" stroke="black" stroke-width="0.8"/>
<text x="72" y="386.8664836942957" text-anchor="end" font-family="Helvetica" font-size="10">10^-5</text>
<line x1="75" y1="325.73296738859136" x2="80" y2="325.73296738859136" stroke="black" stroke-width="0.8"/>
<text x="72" y="329.73296738859136" text-anchor="end" font-family="Helvetica" font-size="10">10^-4</text>
<line x1="75" y1="268.5994510828871" x2="80" y2="268.5994510828871" stroke="black" stroke-width="0.8"/>
<text x="72" y="272.5994510828871" text-anchor="end" font-family="Helvetica" font-size="10">10^-3</text>
<line x1="75" y1="211.46593477718275" x2="80" y2="211.46593477718275" stroke="black" stroke-width="0.8"/>
<text x="72" y="215.46593477718275" text-anchor="end" font-family="Helvetica" font-size="10">10^-2</text>
<line x1="75" y1="154.3324184714785" x2="80" y2="154.3324184714785" stroke="black" stroke-width="0.8"/>
<text x="72" y="158.3324184714785" text-anchor="end" font-family="Helvetica" font-size="10">10^-1</text>
<line x1="75" y1="97.19890216577414" x2="80" y2="97.19890216577414" stroke="black" stroke-width="0.8"/>
<text x="72" y="101.19890216577414" text-anchor="end" font-family="Helvetica" font-size="10">10^0</text>
<line x1="80.00003" y1="80" x2="80.00003" y2="440" stroke="#eee" stroke-width="0.5"/>
<line x1="80.0003" y1="80" x2="80.0003" y2="440" stroke="#eee" stroke-width="0.5"/>
<line x1="80.003" y1="80" x2="80.003" y2="440" stroke="#eee" stroke-width="0.5"/>
<line x1="80.03" y1="80" x2="80.03" y2="440" stroke="#eee" stroke-width="0.5"/>
<line x1="80.3" y1="80" x2="80.3" y2="440" stroke="#eee" stroke-width="0.5"/>
<line x1="83.0" y1="80" x2="83.0" y2="440" stroke="#eee" stroke-width="0.5"/>
<line x1="110.0" y1="80" x2="110.0" y2="440" stroke="#eee" stroke-width="0.5"/>
<line x1="80" y1="382.8664836942957" x2="740" y2="382.8664836942957" stroke="#eee" stroke-width="0.5"/>
<line x1="80" y1="325.73296738859136" x2="740" y2="325.73296738859136" stroke="#eee" stroke-width="0.5"/>
<line x1="80" y1="268.5994510828871" x2="740" y2="268.5994510828871" stroke="#eee" stroke-width="0.5"/>
<line x1="80" y1="211.46593477718275" x2="740" y2="211.46593477718275" stroke="#eee" stroke-width="0.5"/>
<line x1="80" y1="154.3324184714785" x2="740" y2="154.3324184714785" stroke="#eee" stroke-width="0.5"/>
<line x1="80" y1="97.19890216577414" x2="740" y2="97.19890216577414" stroke="#eee" stroke-width="0.5"/>


<path d="M 80.00,97.20 L 81.50,97.21 L 83.00,97.26 L 84.50,97.34 L 86.00,97.45 L 87.50,97.59 L 89.00,97.76 L 90.50,97.96 L 92.00,98.19 L 93.50,98.46 L 95.00,98.75 L 96.50,99.08 L 98.00,99.43 L 99.50,99.82 L 101.00,100.24 L 102.50,100.69 L 104.00,101.17 L 105.50,101.68 L 107.00,102.22 L 108.50,102.80 L 110.00,103.40 L 111.50,104.04 L 113.00,104.70 L 114.50,105.40 L 116.00,106.13 L 117.50,106.89 L 119.00,107.68 L 120.50,108.50 L 122.00,109.36 L 123.50,110.24 L 125.00,111.16 L 126.50,112.10 L 128.00,113.08 L 129.50,114.09 L 131.00,115.13 L 132.50,116.20 L 134.00,117.30 L 135.50,118.43 L 137.00,119.59 L 138.50,120.79 L 140.00,122.01 L 141.50,123.27 L 143.00,124.55 L 144.50,125.87 L 146.00,127.22 L 147.50,128.60 L 149.00,130.01 L 150.50,131.46 L 152.00,132.93 L 153.50,134.43 L 155.00,135.97 L 156.50,137.54 L 158.00,139.13 L 159.50,140.76 L 161.00,142.42 L 162.50,144.11 L 164.00,145.83 L 165.50,147.58 L 167.00,149.37 L 168.50,151.18 L 170.00,153.03 L 171.50,154.90 L 173.00,156.81 L 174.50,158.75 L 176.00,160.72 L 177.50,162.72 L 179.00,164.75 L 180.50,166.81 L 182.00,168.91 L 183.50,171.03 L 185.00,173.19 L 186.50,175.37 L 188.00,177.59 L 189.50,179.84 L 191.00,182.12 L 192.50,184.43 L 194.00,186.77 L 195.50,189.15 L 197.00,191.55 L 198.50,193.98 L 200.00,196.45 L 201.50,198.95 L 203.00,201.47 L 204.50,204.03 L 206.00,206.62 L 207.50,209.24 L 209.00,211.90 L 210.50,214.58 L 212.00,217.29 L 213.50,220.04 L 215.00,222.81 L 216.50,225.62 L 218.00,228.46 L 219.50,231.33 L 221.00,234.23 L 222.50,237.16 L 224.00,240.12 L 225.50,243.11 L 227.00,246.14 L 228.50,249.19 L 230.00,252.28 L 231.50,255.40 L 233.00,258.54 L 234.50,261.72 L 236.00,264.93 L 237.50,268.17 L 239.00,271.45 L 240.50,274.75 L 242.00,278.08 L 243.50,281.45 L 245.00,284.85 L 246.50,288.27 L 248.00,291.73 L 249.50,295.22 L 251.00,298.74 L 252.50,302.29 L 254.00,305.87 L 255.50,309.49 L 257.00,313.13 L 258.50,316.81 L 260.00,320.51 L 261.50,324.25 L 263.00,328.02 L 264.50,331.82 L 266.00,335.65 L 267.50,339.51 L 269.00,343.40 L 270.50,347.33 L 272.00,351.28 L 273.50,355.27 L 275.00,359.28 L 276.50,363.33 L 278.00,367.41 L 279.50,371.52 L 281.00,375.66 L 282.50,379.83 L 284.00,384.03 L 285.50,388.27 L 287.00,392.53 L 288.50,396.83 L 290.00,401.16 L 291.50,405.51 L 293.00,409.90 L 294.50,414.32 L 296.00,418.77 L 297.50,423.25 L 299.00,427.77 L 300.50,432.31 L 302.00,436.89 L 303.50,441.49 L 305.00,446.13 L 306.50,450.80 L 308.00,455.50 L 309.50,460.23 L 311.00,464.99 L 312.50,469.78 L 314.00,474.60 L 315.50,479.46 L 317.00,484.34 L 318.50,489.26 L 320.00,494.20" fill="none" stroke="#0e63a8" stroke-width="2.2"/>
<path d="M 80.00,97.20 L 83.00,98.68 L 86.00,100.17 L 89.00,101.66 L 92.00,103.14 L 95.00,104.63 L 98.00,106.11 L 101.00,107.60 L 104.00,109.08 L 107.00,110.57 L 110.00,112.05 L 113.00,113.54 L 116.00,115.02 L 119.00,116.51 L 122.00,118.00 L 125.00,119.48 L 128.00,120.97 L 131.00,122.45 L 134.00,123.94 L 137.00,125.42 L 140.00,126.91 L 143.00,128.39 L 146.00,129.88 L 149.00,131.36 L 152.00,132.85 L 155.00,134.34 L 158.00,135.82 L 161.00,137.31 L 164.00,138.79 L 167.00,140.28 L 170.00,141.76 L 173.00,143.25 L 176.00,144.73 L 179.00,146.22 L 182.00,147.70 L 185.00,149.19 L 188.00,150.68 L 191.00,152.16 L 194.00,153.65 L 197.00,155.13 L 200.00,156.62 L 203.00,158.10 L 206.00,159.59 L 209.00,161.07 L 212.00,162.56 L 215.00,164.05 L 218.00,165.53 L 221.00,167.02 L 224.00,168.50 L 227.00,169.99 L 230.00,171.47 L 233.00,172.96 L 236.00,174.44 L 239.00,175.93 L 242.00,177.41 L 245.00,178.90 L 248.00,180.39 L 251.00,181.87 L 254.00,183.36 L 257.00,184.84 L 260.00,186.33 L 263.00,187.81 L 266.00,189.30 L 269.00,190.78 L 272.00,192.27 L 275.00,193.75 L 278.00,195.24 L 281.00,196.73 L 284.00,198.21 L 287.00,199.70 L 290.00,201.18 L 293.00,202.67 L 296.00,204.15 L 299.00,205.64 L 302.00,207.12 L 305.00,208.61 L 308.00,210.09 L 311.00,211.58 L 314.00,213.07 L 317.00,214.55 L 320.00,216.04 L 323.00,217.52 L 326.00,219.01 L 329.00,220.49 L 332.00,221.98 L 335.00,223.46 L 338.00,224.95 L 341.00,226.43 L 344.00,227.92 L 347.00,229.41 L 350.00,230.89 L 353.00,232.38 L 356.00,233.86 L 359.00,235.35 L 362.00,236.83 L 365.00,238.32 L 368.00,239.80 L 371.00,241.29 L 374.00,242.78 L 377.00,244.26 L 380.00,245.75 L 383.00,247.23 L 386.00,248.72 L 389.00,250.20 L 392.00,251.69 L 395.00,253.17 L 398.00,254.66 L 401.00,256.14 L 404.00,257.63 L 407.00,259.12 L 410.00,260.60 L 413.00,262.09 L 416.00,263.57 L 419.00,265.06 L 422.00,266.54 L 425.00,268.03 L 428.00,269.51 L 431.00,271.00 L 434.00,272.48 L 437.00,273.97 L 440.00,275.46 L 443.00,276.94 L 446.00,278.43 L 449.00,279.91 L 452.00,281.40 L 455.00,282.88 L 458.00,284.37 L 461.00,285.85 L 464.00,287.34 L 467.00,288.82 L 470.00,290.31 L 473.00,291.80 L 476.00,293.28 L 479.00,294.77 L 482.00,296.25 L 485.00,297.74 L 488.00,299.22 L 491.00,300.71 L 494.00,302.19 L 497.00,303.68 L 500.00,305.16 L 503.00,306.65 L 506.00,308.14 L 509.00,309.62 L 512.00,311.11 L 515.00,312.59 L 518.00,314.08 L 521.00,315.56 L 524.00,317.05 L 527.00,318.53 L 530.00,320.02 L 533.00,321.51 L 536.00,322.99 L 539.00,324.48 L 542.00,325.96 L 545.00,327.45 L 548.00,328.93 L 551.00,330.42 L 554.00,331.90 L 557.00,333.39 L 560.00,334.87 L 563.00,336.36 L 566.00,337.85 L 569.00,339.33 L 572.00,340.82 L 575.00,342.30 L 578.00,343.79 L 581.00,345.27 L 584.00,346.76 L 587.00,348.24 L 590.00,349.73 L 593.00,351.21 L 596.00,352.70 L 599.00,354.19 L 602.00,355.67 L 605.00,357.16 L 608.00,358.64 L 611.00,360.13 L 614.00,361.61 L 617.00,363.10 L 620.00,364.58 L 623.00,366.07 L 626.00,367.55 L 629.00,369.04 L 632.00,370.53 L 635.00,372.01 L 638.00,373.50 L 641.00,374.98 L 644.00,376.47 L 647.00,377.95 L 650.00,379.44 L 653.00,380.92 L 656.00,382.41 L 659.00,383.89 L 662.00,385.38 L 665.00,386.87 L 668.00,388.35 L 671.00,389.84 L 674.00,391.32 L 677.00,392.81 L 680.00,394.29 L 683.00,395.78 L 686.00,397.26 L 689.00,398.75 L 692.00,400.24 L 695.00,401.72 L 698.00,403.21 L 701.00,404.69 L 704.00,406.18 L 707.00,407.66 L 710.00,409.15 L 713.00,410.63 L 716.00,412.12 L 719.00,413.60 L 722.00,415.09 L 725.00,416.58 L 728.00,418.06 L 731.00,419.55 L 734.00,421.03 L 737.00,422.52 L 740.00,424.00" fill="none" stroke="#c2272d" stroke-width="2.0" stroke-dasharray="6,4"/>
<text x="195.87460988103948" y="189.74312959924063" font-family="Helvetica" font-size="11" fill="#0e63a8">  y_b/y_t</text>
<text x="266.89870287943006" y="189.74312959924063" font-family="Helvetica" font-size="11" fill="#c2272d">  y_b/y_t</text>
<text x="208.75796157736082" y="211.46593477718275" font-family="Helvetica" font-size="11" fill="#0e63a8">  y_τ/y_t</text>
<text x="310.7692307692307" y="211.46593477718275" font-family="Helvetica" font-size="11" fill="#c2272d">  y_τ/y_t</text>
<text x="212.90068097485147" y="218.93718645020198" font-family="Helvetica" font-size="11" fill="#0e63a8">  y_c/y_t</text>
<text x="325.8578784925797" y="218.93718645020198" font-family="Helvetica" font-size="11" fill="#c2272d">  y_c/y_t</text>
<text x="244.57882338339107" y="283.88873656954974" font-family="Helvetica" font-size="11" fill="#0e63a8">  y_s/y_t</text>
<text x="457.0314892511959" y="283.88873656954974" font-family="Helvetica" font-size="11" fill="#c2272d">  y_s/y_t</text>
<text x="243.24027004041898" y="280.8643124546477" font-family="Helvetica" font-size="11" fill="#0e63a8">  y_μ/y_t</text>
<text x="450.92348057568074" y="280.8643124546477" font-family="Helvetica" font-size="11" fill="#c2272d">  y_μ/y_t</text>
<text x="281.251137442276" y="376.3564993173464" font-family="Helvetica" font-size="11" fill="#0e63a8">  y_u/y_t</text>
<text x="643.7757670415189" y="376.3564993173464" font-family="Helvetica" font-size="11" fill="#c2272d">  y_u/y_t</text>
<text x="274.60427870695906" y="358.2211550410282" font-family="Helvetica" font-size="11" fill="#0e63a8">  y_d/y_t</text>
<text x="607.1503349047323" y="358.2211550410282" font-family="Helvetica" font-size="11" fill="#c2272d">  y_d/y_t</text>
<text x="294.2495725911691" y="413.58157644731494" font-family="Helvetica" font-size="11" fill="#0e63a8">  y_e/y_t</text>
<text x="718.954077165505" y="413.58157644731494" font-family="Helvetica" font-size="11" fill="#c2272d">  y_e/y_t</text>
<line x1="95" y1="95" x2="120" y2="95" stroke="#0e63a8" stroke-width="2.5"/>
<text x="127" y="99" font-family="Helvetica" font-size="11" fill="black">gaussiano: y/y_t = e^(-d²/4)</text>
<line x1="95" y1="113" x2="120" y2="113" stroke="#c2272d" stroke-width="2.5"/>
<text x="127" y="117" font-family="Helvetica" font-size="11" fill="black">exponencial: y/y_t ≈ 10^(-0.26 d)</text>
</svg>
