<?xml version="1.0" encoding="UTF-8"?>
<svg xmlns="http://www.w3.org/2000/svg" width="760" height="500" viewBox="0 0 760 500">
<rect width="100%" height="100%" fill="#fcfcfc"/>
<rect x="72" y="72" width="616" height="356" fill="white" stroke="black" stroke-width="1.2"/>
<text x="380.0" y="41.0" text-anchor="middle" font-family="Helvetica" font-size="16" font-weight="bold">sim004: ξ_loc vs separación — origen geométrico de jerarquía Yukawa</text>
<text x="380.0" y="476.0" text-anchor="middle" font-family="Helvetica" font-size="13">d_LR / ℓ_s   (separación entre defectos s y c)</text>
<text x="24.0" y="250.0" text-anchor="middle" font-family="Helvetica" font-size="13" transform="rotate(-90 24.0 250.0)">ξ_loc   (overlap geométrico, log)</text>
<line x1="72.0" y1="428" x2="72.0" y2="433" stroke="black" stroke-width="0.8"/>
<text x="72.0" y="446" text-anchor="middle" font-family="Helvetica" font-size="10">0.0e+00</text>
<line x1="195.2" y1="428" x2="195.2" y2="433" stroke="black" stroke-width="0.8"/>
<text x="195.2" y="446" text-anchor="middle" font-family="Helvetica" font-size="10">2.1</text>
<line x1="318.4" y1="428" x2="318.4" y2="433" stroke="black" stroke-width="0.8"/>
<text x="318.4" y="446" text-anchor="middle" font-family="Helvetica" font-size="10">4.2</text>
<line x1="441.59999999999997" y1="428" x2="441.59999999999997" y2="433" stroke="black" stroke-width="0.8"/>
<text x="441.59999999999997" y="446" text-anchor="middle" font-family="Helvetica" font-size="10">6.3</text>
<line x1="564.8" y1="428" x2="564.8" y2="433" stroke="black" stroke-width="0.8"/>
<text x="564.8" y="446" text-anchor="middle" font-family="Helvetica" font-size="10">8.4</text>
<line x1="688.0" y1="428" x2="688.0" y2="433" stroke="black" stroke-width="0.8"/>
<text x="688.0" y="446" text-anchor="middle" font-family="Helvetica" font-size="10">10.5</text>
<line x1="67" y1="428.0" x2="72" y2="428.0" stroke="black" stroke-width="0.8"/>
<text x="64" y="432.0" text-anchor="end" font-family="Helvetica" font-size="10">10^-7</text>
<line x1="67" y1="378.3908204134451" x2="72" y2="378.3908204134451" stroke="black" stroke-width="0.8"/>
<text x="64" y="382.3908204134451" text-anchor="end" font-family="Helvetica" font-size="10">10^-6</text>
<line x1="67" y1="328.7816408268902" x2="72" y2="328.7816408268902" stroke="black" stroke-width="0.8"/>
<text x="64" y="332.7816408268902" text-anchor="end" font-family="Helvetica" font-size="10">10^-5</text>
<line x1="67" y1="279.17246124033534" x2="72" y2="279.17246124033534" stroke="black" stroke-width="0.8"/>
<text x="64" y="283.17246124033534" text-anchor="end" font-family="Helvetica" font-size="10">10^-4</text>
<line x1="67" y1="229.56328165378048" x2="72" y2="229.56328165378048" stroke="black" stroke-width="0.8"/>
<text x="64" y="233.56328165378048" text-anchor="end" font-family="Helvetica" font-size="10">10^-3</text>
<line x1="67" y1="179.95410206722562" x2="72" y2="179.95410206722562" stroke="black" stroke-width="0.8"/>
<text x="64" y="183.95410206722562" text-anchor="end" font-family="Helvetica" font-size="10">10^-2</text>
<line x1="67" y1="130.34492248067073" x2="72" y2="130.34492248067073" stroke="black" stroke-width="0.8"/>
<text x="64" y="134.34492248067073" text-anchor="end" font-family="Helvetica" font-size="10">10^-1</text>
<line x1="67" y1="80.73574289411584" x2="72" y2="80.73574289411584" stroke="black" stroke-width="0.8"/>
<text x="64" y="84.73574289411584" text-anchor="end" font-family="Helvetica" font-size="10">10^0</text>
<line x1="72.00000586666667" y1="72" x2="72.00000586666667" y2="428" stroke="#eee" stroke-width="0.5"/>
<line x1="72.00005866666666" y1="72" x2="72.00005866666666" y2="428" stroke="#eee" stroke-width="0.5"/>
<line x1="72.00058666666666" y1="72" x2="72.00058666666666" y2="428" stroke="#eee" stroke-width="0.5"/>
<line x1="72.00586666666666" y1="72" x2="72.00586666666666" y2="428" stroke="#eee" stroke-width="0.5"/>
<line x1="72.05866666666667" y1="72" x2="72.05866666666667" y2="428" stroke="#eee" stroke-width="0.5"/>
<line x1="72.58666666666667" y1="72" x2="72.58666666666667" y2="428" stroke="#eee" stroke-width="0.5"/>
<line x1="77.86666666666667" y1="72" x2="77.86666666666667" y2="428" stroke="#eee" stroke-width="0.5"/>
<line x1="130.66666666666666" y1="72" x2="130.66666666666666" y2="428" stroke="#eee" stroke-width="0.5"/>
<line x1="72" y1="378.3908204134451" x2="688" y2="378.3908204134451" stroke="#eee" stroke-width="0.5"/>
<line x1="72" y1="328.7816408268902" x2="688" y2="328.7816408268902" stroke="#eee" stroke-width="0.5"/>
<line x1="72" y1="279.17246124033534" x2="688" y2="279.17246124033534" stroke="#eee" stroke-width="0.5"/>
<line x1="72" y1="229.56328165378048" x2="688" y2="229.56328165378048" stroke="#eee" stroke-width="0.5"/>
<line x1="72" y1="179.95410206722562" x2="688" y2="179.95410206722562" stroke="#eee" stroke-width="0.5"/>
<line x1="72" y1="130.34492248067073" x2="688" y2="130.34492248067073" stroke="#eee" stroke-width="0.5"/>
<line x1="72" y1="80.73574289411584" x2="688" y2="80.73574289411584" stroke="#eee" stroke-width="0.5"/>
<line x1="72" y1="179.95410206722562" x2="688" y2="179.95410206722562" stroke="#888" stroke-width="1.5" stroke-dasharray="3,4"/>
<text x="683" y="175.95410206722562" text-anchor="end" font-family="Helvetica" font-size="11" fill="#888">ξ = 10⁻² (~y_b/y_t)</text>
<line x1="72" y1="279.17246124033534" x2="688" y2="279.17246124033534" stroke="#888" stroke-width="1.5" stroke-dasharray="3,4"/>
<text x="683" y="275.17246124033534" text-anchor="end" font-family="Helvetica" font-size="11" fill="#888">ξ = 10⁻⁴ (~y_τ/y_t)</text>
<line x1="72" y1="378.3908204134451" x2="688" y2="378.3908204134451" stroke="#888" stroke-width="1.5" stroke-dasharray="3,4"/>
<text x="683" y="374.3908204134451" text-anchor="end" font-family="Helvetica" font-size="11" fill="#888">ξ = 10⁻⁶ (~y_e/y_t)</text>

<path d="M 72.00,80.74 L 72.59,80.74 L 73.17,80.74 L 73.76,80.74 L 74.35,80.74 L 74.93,80.75 L 75.52,80.76 L 76.11,80.76 L 76.69,80.77 L 77.28,80.78 L 77.87,80.79 L 78.45,80.80 L 79.04,80.81 L 79.63,80.83 L 80.21,80.84 L 80.80,80.86 L 81.39,80.87 L 81.97,80.89 L 82.56,80.91 L 83.15,80.93 L 83.73,80.95 L 84.32,80.97 L 84.91,81.00 L 85.49,81.02 L 86.08,81.05 L 86.67,81.07 L 87.25,81.10 L 87.84,81.13 L 88.43,81.16 L 89.01,81.19 L 89.60,81.22 L 90.19,81.25 L 90.77,81.29 L 91.36,81.32 L 91.95,81.36 L 92.53,81.40 L 93.12,81.43 L 93.71,81.47 L 94.29,81.51 L 94.88,81.55 L 95.47,81.60 L 96.05,81.64 L 96.64,81.69 L 97.23,81.73 L 97.81,81.78 L 98.40,81.83 L 98.99,81.88 L 99.57,81.93 L 100.16,81.98 L 100.75,82.03 L 101.33,82.08 L 101.92,82.14 L 102.51,82.19 L 103.09,82.25 L 103.68,82.31 L 104.27,82.37 L 104.85,82.42 L 105.44,82.49 L 106.03,82.55 L 106.61,82.61 L 107.20,82.67 L 107.79,82.74 L 108.37,82.81 L 108.96,82.87 L 109.55,82.94 L 110.13,83.01 L 110.72,83.08 L 111.31,83.15 L 111.89,83.23 L 112.48,83.30 L 113.07,83.38 L 113.65,83.45 L 114.24,83.53 L 114.83,83.61 L 115.41,83.69 L 116.00,83.77 L 116.59,83.85 L 117.17,83.93 L 117.76,84.01 L 118.35,84.10 L 118.93,84.18 L 119.52,84.27 L 120.11,84.36 L 120.69,84.45 L 121.28,84.54 L 121.87,84.63 L 122.45,84.72 L 123.04,84.81 L 123.63,84.91 L 124.21,85.00 L 124.80,85.10 L 125.39,85.20 L 125.97,85.29 L 126.56,85.39 L 127.15,85.50 L 127.73,85.60 L 128.32,85.70 L 128.91,85.80 L 129.49,85.91 L 130.08,86.01 L 130.67,86.12 L 131.25,86.23 L 131.84,86.34 L 132.43,86.45 L 133.01,86.56 L 133.60,86.67 L 134.19,86.79 L 134.77,86.90 L 135.36,87.02 L 135.95,87.14 L 136.53,87.25 L 137.12,87.37 L 137.71,87.49 L 138.29,87.61 L 138.88,87.74 L 139.47,87.86 L 140.05,87.98 L 140.64,88.11 L 141.23,88.24 L 141.81,88.36 L 142.40,88.49 L 142.99,88.62 L 143.57,88.75 L 144.16,88.88 L 144.75,89.02 L 145.33,89.15 L 145.92,89.29 L 146.51,89.42 L 147.09,89.56 L 147.68,89.70 L 148.27,89.84 L 148.85,89.98 L 149.44,90.12 L 150.03,90.26 L 150.61,90.41 L 151.20,90.55 L 151.79,90.70 L 152.37,90.85 L 152.96,90.99 L 153.55,91.14 L 154.13,91.29 L 154.72,91.44 L 155.31,91.60 L 155.89,91.75 L 156.48,91.90 L 157.07,92.06 L 157.65,92.22 L 158.24,92.37 L 158.83,92.53 L 159.41,92.69 L 160.00,92.85 L 160.59,93.02 L 161.17,93.18 L 161.76,93.34 L 162.35,93.51 L 162.93,93.68 L 163.52,93.84 L 164.11,94.01 L 164.69,94.18 L 165.28,94.35 L 165.87,94.52 L 166.45,94.70 L 167.04,94.87 L 167.63,95.05 L 168.21,95.22 L 168.80,95.40 L 169.39,95.58 L 169.97,95.76 L 170.56,95.94 L 171.15,96.12 L 171.73,96.30 L 172.32,96.49 L 172.91,96.67 L 173.49,96.86 L 174.08,97.04 L 174.67,97.23 L 175.25,97.42 L 175.84,97.61 L 176.43,97.80 L 177.01,97.99 L 177.60,98.19 L 178.19,98.38 L 178.77,98.58 L 179.36,98.77 L 179.95,98.97 L 180.53,99.17 L 181.12,99.37 L 181.71,99.57 L 182.29,99.77 L 182.88,99.98 L 183.47,100.18 L 184.05,100.39 L 184.64,100.59 L 185.23,100.80 L 185.81,101.01 L 186.40,101.22 L 186.99,101.43 L 187.57,101.64 L 188.16,101.85 L 188.75,102.07 L 189.33,102.28 L 189.92,102.50 L 190.51,102.71 L 191.09,102.93 L 191.68,103.15 L 192.27,103.37 L 192.85,103.59 L 193.44,103.82 L 194.03,104.04 L 194.61,104.26 L 195.20,104.49 L 195.79,104.72 L 196.37,104.94 L 196.96,105.17 L 197.55,105.40 L 198.13,105.63 L 198.72,105.87 L 199.31,106.10 L 199.89,106.33 L 200.48,106.57 L 201.07,106.81 L 201.65,107.04 L 202.24,107.28 L 202.83,107.52 L 203.41,107.76 L 204.00,108.00 L 204.59,108.25 L 205.17,108.49 L 205.76,108.74 L 206.35,108.98 L 206.93,109.23 L 207.52,109.48 L 208.11,109.73 L 208.69,109.98 L 209.28,110.23 L 209.87,110.48 L 210.45,110.73 L 211.04,110.99 L 211.63,111.25 L 212.21,111.50 L 212.80,111.76 L 213.39,112.02 L 213.97,112.28 L 214.56,112.54 L 215.15,112.80 L 215.73,113.07 L 216.32,113.33 L 216.91,113.60 L 217.49,113.86 L 218.08,114.13 L 218.67,114.40 L 219.25,114.67 L 219.84,114.94 L 220.43,115.21 L 221.01,115.49 L 221.60,115.76 L 222.19,116.04 L 222.77,116.31 L 223.36,116.59 L 223.95,116.87 L 224.53,117.15 L 225.12,117.43 L 225.71,117.71 L 226.29,117.99 L 226.88,118.28 L 227.47,118.56 L 228.05,118.85 L 228.64,119.13 L 229.23,119.42 L 229.81,119.71 L 230.40,120.00 L 230.99,120.29 L 231.57,120.59 L 232.16,120.88 L 232.75,121.17 L 233.33,121.47 L 233.92,121.77 L 234.51,122.06 L 235.09,122.36 L 235.68,122.66 L 236.27,122.96 L 236.85,123.27 L 237.44,123.57 L 238.03,123.87 L 238.61,124.18 L 239.20,124.49 L 239.79,124.79 L 240.37,125.10 L 240.96,125.41 L 241.55,125.72 L 242.13,126.03 L 242.72,126.35 L 243.31,126.66 L 243.89,126.98 L 244.48,127.29 L 245.07,127.61 L 245.65,127.93 L 246.24,128.25 L 246.83,128.57 L 247.41,128.89 L 248.00,129.21 L 248.59,129.54 L 249.17,129.86 L 249.76,130.19 L 250.35,130.51 L 250.93,130.84 L 251.52,131.17 L 252.11,131.50 L 252.69,131.83 L 253.28,132.16 L 253.87,132.50 L 254.45,132.83 L 255.04,133.17 L 255.63,133.50 L 256.21,133.84 L 256.80,134.18 L 257.39,134.52 L 257.97,134.86 L 258.56,135.20 L 259.15,135.55 L 259.73,135.89 L 260.32,136.24 L 260.91,136.58 L 261.49,136.93 L 262.08,137.28 L 262.67,137.63 L 263.25,137.98 L 263.84,138.33 L 264.43,138.68 L 265.01,139.04 L 265.60,139.39 L 266.19,139.75 L 266.77,140.11 L 267.36,140.46 L 267.95,140.82 L 268.53,141.18 L 269.12,141.54 L 269.71,141.91 L 270.29,142.27 L 270.88,142.64 L 271.47,143.00 L 272.05,143.37 L 272.64,143.74 L 273.23,144.10 L 273.81,144.47 L 274.40,144.85 L 274.99,145.22 L 275.57,145.59 L 276.16,145.97 L 276.75,146.34 L 277.33,146.72 L 277.92,147.09 L 278.51,147.47 L 279.09,147.85 L 279.68,148.23 L 280.27,148.62 L 280.85,149.00 L 281.44,149.38 L 282.03,149.77 L 282.61,150.15 L 283.20,150.54 L 283.79,150.93 L 284.37,151.32 L 284.96,151.71 L 285.55,152.10 L 286.13,152.49 L 286.72,152.89 L 287.31,153.28 L 287.89,153.68 L 288.48,154.08 L 289.07,154.47 L 289.65,154.87 L 290.24,155.27 L 290.83,155.67 L 291.41,156.08 L 292.00,156.48 L 292.59,156.88 L 293.17,157.29 L 293.76,157.70 L 294.35,158.10 L 294.93,158.51 L 295.52,158.92 L 296.11,159.33 L 296.69,159.75 L 297.28,160.16 L 297.87,160.57 L 298.45,160.99 L 299.04,161.41 L 299.63,161.82 L 300.21,162.24 L 300.80,162.66 L 301.39,163.08 L 301.97,163.50 L 302.56,163.93 L 303.15,164.35 L 303.73,164.77 L 304.32,165.20 L 304.91,165.63 L 305.49,166.06 L 306.08,166.49 L 306.67,166.92 L 307.25,167.35 L 307.84,167.78 L 308.43,168.21 L 309.01,168.65 L 309.60,169.08 L 310.19,169.52 L 310.77,169.96 L 311.36,170.40 L 311.95,170.84 L 312.53,171.28 L 313.12,171.72 L 313.71,172.16 L 314.29,172.61 L 314.88,173.05 L 315.47,173.50 L 316.05,173.95 L 316.64,174.40 L 317.23,174.85 L 317.81,175.30 L 318.40,175.75 L 318.99,176.20 L 319.57,176.66 L 320.16,177.11 L 320.75,177.57 L 321.33,178.02 L 321.92,178.48 L 322.51,178.94 L 323.09,179.40 L 323.68,179.86 L 324.27,180.33 L 324.85,180.79 L 325.44,181.26 L 326.03,181.72 L 326.61,182.19 L 327.20,182.66 L 327.79,183.13 L 328.37,183.60 L 328.96,184.07 L 329.55,184.54 L 330.13,185.01 L 330.72,185.49 L 331.31,185.96 L 331.89,186.44 L 332.48,186.92 L 333.07,187.40 L 333.65,187.88 L 334.24,188.36 L 334.83,188.84 L 335.41,189.32 L 336.00,189.81 L 336.59,190.29 L 337.17,190.78 L 337.76,191.27 L 338.35,191.75 L 338.93,192.24 L 339.52,192.74 L 340.11,193.23 L 340.69,193.72 L 341.28,194.21 L 341.87,194.71 L 342.45,195.20 L 343.04,195.70 L 343.63,196.20 L 344.21,196.70 L 344.80,197.20 L 345.39,197.70 L 345.97,198.20 L 346.56,198.71 L 347.15,199.21 L 347.73,199.72 L 348.32,200.22 L 348.91,200.73 L 349.49,201.24 L 350.08,201.75 L 350.67,202.26 L 351.25,202.78 L 351.84,203.29 L 352.43,203.80 L 353.01,204.32 L 353.60,204.83 L 354.19,205.35 L 354.77,205.87 L 355.36,206.39 L 355.95,206.91 L 356.53,207.43 L 357.12,207.96 L 357.71,208.48 L 358.29,209.01 L 358.88,209.53 L 359.47,210.06 L 360.05,210.59 L 360.64,211.12 L 361.23,211.65 L 361.81,212.18 L 362.40,212.71 L 362.99,213.25 L 363.57,213.78 L 364.16,214.32 L 364.75,214.85 L 365.33,215.39 L 365.92,215.93 L 366.51,216.47 L 367.09,217.01 L 367.68,217.56 L 368.27,218.10 L 368.85,218.64 L 369.44,219.19 L 370.03,219.74 L 370.61,220.28 L 371.20,220.83 L 371.79,221.38 L 372.37,221.93 L 372.96,222.49 L 373.55,223.04 L 374.13,223.59 L 374.72,224.15 L 375.31,224.70 L 375.89,225.26 L 376.48,225.82 L 377.07,226.38 L 377.65,226.94 L 378.24,227.50 L 378.83,228.07 L 379.41,228.63 L 380.00,229.19 L 380.59,229.76 L 381.17,230.33 L 381.76,230.90 L 382.35,231.47 L 382.93,232.04 L 383.52,232.61 L 384.11,233.18 L 384.69,233.75 L 385.28,234.33 L 385.87,234.90 L 386.45,235.48 L 387.04,236.06 L 387.63,236.64 L 388.21,237.22 L 388.80,237.80 L 389.39,238.38 L 389.97,238.96 L 390.56,239.55 L 391.15,240.13 L 391.73,240.72 L 392.32,241.31 L 392.91,241.90 L 393.49,242.49 L 394.08,243.08 L 394.67,243.67 L 395.25,244.26 L 395.84,244.86 L 396.43,245.45 L 397.01,246.05 L 397.60,246.65 L 398.19,247.24 L 398.77,247.84 L 399.36,248.44 L 399.95,249.05 L 400.53,249.65 L 401.12,250.25 L 401.71,250.86 L 402.29,251.46 L 402.88,252.07 L 403.47,252.68 L 404.05,253.29 L 404.64,253.90 L 405.23,254.51 L 405.81,255.12 L 406.40,255.73 L 406.99,256.35 L 407.57,256.97 L 408.16,257.58 L 408.75,258.20 L 409.33,258.82 L 409.92,259.44 L 410.51,260.06 L 411.09,260.68 L 411.68,261.30 L 412.27,261.93 L 412.85,262.55 L 413.44,263.18 L 414.03,263.81 L 414.61,264.44 L 415.20,265.07 L 415.79,265.70 L 416.37,266.33 L 416.96,266.96 L 417.55,267.60 L 418.13,268.23 L 418.72,268.87 L 419.31,269.50 L 419.89,270.14 L 420.48,270.78 L 421.07,271.42 L 421.65,272.06 L 422.24,272.71 L 422.83,273.35 L 423.41,273.99 L 424.00,274.64 L 424.59,275.29 L 425.17,275.94 L 425.76,276.58 L 426.35,277.23 L 426.93,277.89 L 427.52,278.54 L 428.11,279.19 L 428.69,279.85 L 429.28,280.50 L 429.87,281.16 L 430.45,281.82 L 431.04,282.47 L 431.63,283.13 L 432.21,283.80 L 432.80,284.46 L 433.39,285.12 L 433.97,285.78 L 434.56,286.45 L 435.15,287.12 L 435.73,287.78 L 436.32,288.45 L 436.91,289.12 L 437.49,289.79 L 438.08,290.46 L 438.67,291.14 L 439.25,291.81 L 439.84,292.48 L 440.43,293.16 L 441.01,293.84 L 441.60,294.52 L 442.19,295.20 L 442.77,295.88 L 443.36,296.56 L 443.95,297.24 L 444.53,297.92 L 445.12,298.61 L 445.71,299.29 L 446.29,299.98 L 446.88,300.67 L 447.47,301.36 L 448.05,302.05 L 448.64,302.74 L 449.23,303.43 L 449.81,304.12 L 450.40,304.82 L 450.99,305.51 L 451.57,306.21 L 452.16,306.91 L 452.75,307.61 L 453.33,308.30 L 453.92,309.01 L 454.51,309.71 L 455.09,310.41 L 455.68,311.11 L 456.27,311.82 L 456.85,312.53 L 457.44,313.23 L 458.03,313.94 L 458.61,314.65 L 459.20,315.36 L 459.79,316.07 L 460.37,316.78 L 460.96,317.50 L 461.55,318.21 L 462.13,318.93 L 462.72,319.65 L 463.31,320.36 L 463.89,321.08 L 464.48,321.80 L 465.07,322.52 L 465.65,323.25 L 466.24,323.97 L 466.83,324.69 L 467.41,325.42 L 468.00,326.15 L 468.59,326.87 L 469.17,327.60 L 469.76,328.33 L 470.35,329.06 L 470.93,329.80 L 471.52,330.53 L 472.11,331.26 L 472.69,332.00 L 473.28,332.73 L 473.87,333.47 L 474.45,334.21 L 475.04,334.95 L 475.63,335.69 L 476.21,336.43 L 476.80,337.18 L 477.39,337.92 L 477.97,338.66 L 478.56,339.41 L 479.15,340.16 L 479.73,340.90 L 480.32,341.65 L 480.91,342.40 L 481.49,343.16 L 482.08,343.91 L 482.67,344.66 L 483.25,345.42 L 483.84,346.17 L 484.43,346.93 L 485.01,347.69 L 485.60,348.45 L 486.19,349.21 L 486.77,349.97 L 487.36,350.73 L 487.95,351.49 L 488.53,352.26 L 489.12,353.02 L 489.71,353.79 L 490.29,354.56 L 490.88,355.32 L 491.47,356.09 L 492.05,356.86 L 492.64,357.64 L 493.23,358.41 L 493.81,359.18 L 494.40,359.96 L 494.99,360.74 L 495.57,361.51 L 496.16,362.29 L 496.75,363.07 L 497.33,363.85 L 497.92,364.63 L 498.51,365.41 L 499.09,366.20 L 499.68,366.98 L 500.27,367.77 L 500.85,368.56 L 501.44,369.34 L 502.03,370.13 L 502.61,370.92 L 503.20,371.71 L 503.79,372.51 L 504.37,373.30 L 504.96,374.09 L 505.55,374.89 L 506.13,375.69 L 506.72,376.48 L 507.31,377.28 L 507.89,378.08 L 508.48,378.88 L 509.07,379.69 L 509.65,380.49 L 510.24,381.29 L 510.83,382.10 L 511.41,382.90 L 512.00,383.71 L 512.59,384.52 L 513.17,385.33 L 513.76,386.14 L 514.35,386.95 L 514.93,387.77 L 515.52,388.58 L 516.11,389.39 L 516.69,390.21 L 517.28,391.03 L 517.87,391.85 L 518.45,392.66 L 519.04,393.49 L 519.63,394.31 L 520.21,395.13 L 520.80,395.95 L 521.39,396.78 L 521.97,397.60 L 522.56,398.43 L 523.15,399.26 L 523.73,400.09 L 524.32,400.92 L 524.91,401.75 L 525.49,402.58 L 526.08,403.41 L 526.67,404.25 L 527.25,405.08 L 527.84,405.92 L 528.43,406.76 L 529.01,407.60 L 529.60,408.44 L 530.19,409.28 L 530.77,410.12 L 531.36,410.96 L 531.95,411.80 L 532.53,412.65 L 533.12,413.50 L 533.71,414.34 L 534.29,415.19 L 534.88,416.04 L 535.47,416.89 L 536.05,417.74 L 536.64,418.60 L 537.23,419.45 L 537.81,420.30 L 538.40,421.16 L 538.99,422.02 L 539.57,422.88 L 540.16,423.73 L 540.75,424.59 L 541.33,425.46 L 541.92,426.32 L 542.51,427.18 L 543.09,428.05 L 543.68,428.91 L 544.27,429.78 L 544.85,430.65 L 545.44,431.51 L 546.03,432.38 L 546.61,433.26 L 547.20,434.13 L 547.79,435.00 L 548.37,435.87 L 548.96,436.75 L 549.55,437.63 L 550.13,438.50 L 550.72,439.38 L 551.31,440.26 L 551.89,441.14 L 552.48,442.02 L 553.07,442.91 L 553.65,443.79 L 554.24,444.68 L 554.83,445.56 L 555.41,446.45 L 556.00,447.34 L 556.59,448.23 L 557.17,449.12 L 557.76,450.01 L 558.35,450.90 L 558.93,451.79 L 559.52,452.69 L 560.11,453.58 L 560.69,454.48 L 561.28,455.38 L 561.87,456.28 L 562.45,457.18 L 563.04,458.08 L 563.63,458.98 L 564.21,459.89 L 564.80,460.79 L 565.39,461.69 L 565.97,462.60 L 566.56,463.51 L 567.15,464.42 L 567.73,465.33 L 568.32,466.24 L 568.91,467.15 L 569.49,468.06 L 570.08,468.98 L 570.67,469.89 L 571.25,470.81 L 571.84,471.73 L 572.43,472.64 L 573.01,473.56 L 573.60,474.48 L 574.19,475.41 L 574.77,476.33 L 575.36,477.25 L 575.95,478.18 L 576.53,479.10 L 577.12,480.03 L 577.71,480.96 L 578.29,481.89 L 578.88,482.82 L 579.47,483.75 L 580.05,484.68 L 580.64,485.61 L 581.23,486.55 L 581.81,487.48 L 582.40,488.42 L 582.99,489.36 L 583.57,490.30 L 584.16,491.24 L 584.75,492.18 L 585.33,493.12 L 585.92,494.06 L 586.51,495.01 L 587.09,495.95 L 587.68,496.90 L 588.27,497.85 L 588.85,498.80 L 589.44,499.74 L 590.03,500.70 L 590.61,501.65 L 591.20,502.60 L 591.79,503.55 L 592.37,504.51 L 592.96,505.47 L 593.55,506.42 L 594.13,507.38 L 594.72,508.34 L 595.31,509.30 L 595.89,510.26 L 596.48,511.22 L 597.07,512.19 L 597.65,513.15 L 598.24,514.12 L 598.83,515.08 L 599.41,516.05 L 600.00,517.02 L 600.59,517.99 L 601.17,518.96 L 601.76,519.94 L 602.35,520.91 L 602.93,521.88 L 603.52,522.86 L 604.11,523.83 L 604.69,524.81 L 605.28,525.79 L 605.87,526.77 L 606.45,527.75 L 607.04,528.73 L 607.63,529.72 L 608.21,530.70 L 608.80,531.69 L 609.39,532.67 L 609.97,533.66 L 610.56,534.65 L 611.15,535.64 L 611.73,536.63 L 612.32,537.62 L 612.91,538.61 L 613.49,539.61 L 614.08,540.60 L 614.67,541.60 L 615.25,542.59 L 615.84,543.59 L 616.43,544.59 L 617.01,545.59 L 617.60,546.59 L 618.19,547.59 L 618.77,548.60 L 619.36,549.60 L 619.95,550.61 L 620.53,551.62 L 621.12,552.62 L 621.71,553.63 L 622.29,554.64 L 622.88,555.65 L 623.47,556.66 L 624.05,557.68 L 624.64,558.69 L 625.23,559.71 L 625.81,560.72 L 626.40,561.74 L 626.99,562.76 L 627.57,563.78 L 628.16,564.80 L 628.75,565.82 L 629.33,566.84 L 629.92,567.87 L 630.51,568.89 L 631.09,569.92 L 631.68,570.95 L 632.27,571.98 L 632.85,573.00 L 633.44,574.03 L 634.03,575.07 L 634.61,576.10 L 635.20,577.13 L 635.79,578.17 L 636.37,579.20 L 636.96,580.24 L 637.55,581.28 L 638.13,582.32 L 638.72,583.36 L 639.31,584.40 L 639.89,585.44 L 640.48,586.48 L 641.07,587.53 L 641.65,588.57 L 642.24,589.62 L 642.83,590.67 L 643.41,591.72 L 644.00,592.77 L 644.59,593.82 L 645.17,594.87 L 645.76,595.92 L 646.35,596.98 L 646.93,598.03 L 647.52,599.09 L 648.11,600.14 L 648.69,601.20 L 649.28,602.26 L 649.87,603.32 L 650.45,604.38 L 651.04,605.45 L 651.63,606.51 L 652.21,607.58 L 652.80,608.64 L 653.39,609.71 L 653.97,610.78 L 654.56,611.85 L 655.15,612.92 L 655.73,613.99 L 656.32,615.06 L 656.91,616.13 L 657.49,617.21 L 658.08,618.28 L 658.67,619.36 L 659.25,620.44 L 659.84,621.52 L 660.43,622.60 L 661.01,623.68 L 661.60,624.76 L 662.19,625.84 L 662.77,626.93 L 663.36,628.01 L 663.95,629.10 L 664.53,630.19 L 665.12,631.28 L 665.71,632.37 L 666.29,633.46 L 666.88,634.55 L 667.47,635.64 L 668.05,636.73 L 668.64,637.83 L 669.23,638.93 L 669.81,640.02 L 670.40,641.12 L 670.99,642.22 L 671.57,643.32 L 672.16,644.42 L 672.75,645.52 L 673.33,646.63 L 673.92,647.73 L 674.51,648.84 L 675.09,649.95 L 675.68,651.05 L 676.27,652.16 L 676.85,653.27 L 677.44,654.38 L 678.03,655.50 L 678.61,656.61 L 679.20,657.72 L 679.79,658.84 L 680.37,659.96 L 680.96,661.07 L 681.55,662.19 L 682.13,663.31 L 682.72,664.43 L 683.31,665.56 L 683.89,666.68 L 684.48,667.80 L 685.07,668.93 L 685.65,670.05 L 686.24,671.18 L 686.83,672.31 L 687.41,673.44 L 688.00,674.57" fill="none" stroke="#0e63a8" stroke-width="2.0"/>
<path d="M 72.00,80.74 L 101.33,82.08 L 130.67,86.12 L 160.00,92.85 L 189.33,102.28 L 248.00,129.21 L 306.67,166.92 L 365.33,215.39 L 424.00,274.64 L 482.67,344.67 L 541.33,425.47" fill="none" stroke="#0e63a8" stroke-width="0"/>
<path d="M 72.00,80.82 L 101.33,81.68 L 130.67,84.06 L 189.33,92.28 L 248.00,103.46 L 306.67,116.63 L 365.33,131.12 L 482.67,162.80 L 658.67,214.50" fill="none" stroke="#c2272d" stroke-width="2.2" stroke-dasharray="6,4"/>
<text x="72.0" y="80.73574289411584" font-family="Helvetica" font-size="11" fill="#0e63a8">•</text>
<text x="101.33333333333333" y="82.08230410039732" font-family="Helvetica" font-size="11" fill="#0e63a8">•</text>
<text x="130.66666666666666" y="86.12199066234484" font-family="Helvetica" font-size="11" fill="#0e63a8">•</text>
<text x="160.0" y="92.85480236148823" font-family="Helvetica" font-size="11" fill="#0e63a8">•</text>
<text x="189.33333333333331" y="102.28073825152467" font-family="Helvetica" font-size="11" fill="#0e63a8">•</text>
<text x="248.0" y="129.21198204380926" font-family="Helvetica" font-size="11" fill="#0e63a8">•</text>
<text x="306.66666666666663" y="166.91581924043004" font-family="Helvetica" font-size="11" fill="#0e63a8">•</text>
<text x="365.3333333333333" y="215.39251952544714" font-family="Helvetica" font-size="11" fill="#0e63a8">•</text>
<text x="424.0" y="274.6429148745773" font-family="Helvetica" font-size="11" fill="#0e63a8">•</text>
<text x="482.66666666666663" y="344.6687846663889" font-family="Helvetica" font-size="11" fill="#0e63a8">•</text>
<text x="541.3333333333333" y="425.47332254537605" font-family="Helvetica" font-size="11" fill="#0e63a8">•</text>
<text x="72.0" y="80.81647871362526" font-family="Helvetica" font-size="11" fill="#c2272d">■</text>
<text x="101.33333333333333" y="81.67564731871335" font-family="Helvetica" font-size="11" fill="#c2272d">■</text>
<text x="130.66666666666666" y="84.05527833300778" font-family="Helvetica" font-size="11" fill="#c2272d">■</text>
<text x="189.33333333333331" y="92.28240880621718" font-family="Helvetica" font-size="11" fill="#c2272d">■</text>
<text x="248.0" y="103.45984703020827" font-family="Helvetica" font-size="11" fill="#c2272d">■</text>
<text x="306.66666666666663" y="116.62698391850233" font-family="Helvetica" font-size="11" fill="#c2272d">■</text>
<text x="365.3333333333333" y="131.11878217533314" font-family="Helvetica" font-size="11" fill="#c2272d">■</text>
<text x="482.66666666666663" y="162.80421522643354" font-family="Helvetica" font-size="11" fill="#c2272d">■</text>
<text x="658.6666666666666" y="214.50398446736511" font-family="Helvetica" font-size="11" fill="#c2272d">■</text>
<line x1="87" y1="87" x2="112" y2="87" stroke="#0e63a8" stroke-width="2.5"/>
<text x="119" y="91" font-family="Helvetica" font-size="11" fill="black">gaussiano  (analítico: e^(-d²/4))</text>
<line x1="87" y1="105" x2="112" y2="105" stroke="#c2272d" stroke-width="2.5"/>
<text x="119" y="109" font-family="Helvetica" font-size="11" fill="black">exponencial  (numérico)</text>
</svg>
